<?xml version="1.0" encoding="UTF-8" standalone="no"?>
<!-- Created with Inkscape (http://www.inkscape.org/) -->

<svg
   xmlns:dc="http://purl.org/dc/elements/1.1/"
   xmlns:cc="http://creativecommons.org/ns#"
   xmlns:rdf="http://www.w3.org/1999/02/22-rdf-syntax-ns#"
   xmlns:svg="http://www.w3.org/2000/svg"
   xmlns="http://www.w3.org/2000/svg"
   xmlns:sodipodi="http://sodipodi.sourceforge.net/DTD/sodipodi-0.dtd"
   xmlns:inkscape="http://www.inkscape.org/namespaces/inkscape"
   version="1.1"
   width="840"
   height="243"
   viewBox="0 0 841.05132 242.36883"
   id="svg2"
   xml:space="preserve"
   style="fill-rule:evenodd"
   inkscape:version="0.48.2 r9819"
   sodipodi:docname="minimak-l.svg"
   inkscape:export-filename="C:\Users\Ted\Dropbox\Projects\minimak\header-object.png"
   inkscape:export-xdpi="90"
   inkscape:export-ydpi="90"><sodipodi:namedview
   pagecolor="#ffffff"
   bordercolor="#666666"
   borderopacity="1"
   objecttolerance="10"
   gridtolerance="10"
   guidetolerance="10"
   inkscape:pageopacity="0"
   inkscape:pageshadow="2"
   inkscape:window-width="1366"
   inkscape:window-height="746"
   id="namedview484"
   showgrid="false"
   inkscape:zoom="1.3065624"
   inkscape:cx="420.23333"
   inkscape:cy="141.65944"
   inkscape:window-x="-8"
   inkscape:window-y="-8"
   inkscape:window-maximized="1"
   inkscape:current-layer="g3163"
   fit-margin-top="0"
   fit-margin-left="0"
   fit-margin-right="0"
   fit-margin-bottom="0" /><metadata
   id="metadata872"><rdf:RDF><cc:Work
       rdf:about=""><dc:format>image/svg+xml</dc:format><dc:type
         rdf:resource="http://purl.org/dc/dcmitype/StillImage" /><dc:title /></cc:Work></rdf:RDF></metadata>
 <defs
   id="defs4"><marker
   refX="0"
   refY="0"
   orient="auto"
   id="TriangleOutM"
   style="overflow:visible"><path
     d="m 5.77,0 -8.65,5 0,-10 8.65,5 z"
     transform="scale(0.4,0.4)"
     id="path4359"
     style="fill-rule:evenodd;stroke:#000000;stroke-width:1pt;marker-start:none"
     inkscape:connector-curvature="0" /></marker><marker
   refX="0"
   refY="0"
   orient="auto"
   id="TriangleOutS"
   style="overflow:visible"><path
     d="m 5.77,0 -8.65,5 0,-10 8.65,5 z"
     transform="scale(0.2,0.2)"
     id="path4362"
     style="fill-rule:evenodd;stroke:#000000;stroke-width:1pt;marker-start:none"
     inkscape:connector-curvature="0" /></marker><marker
   refX="0"
   refY="0"
   orient="auto"
   id="TriangleOutL"
   style="overflow:visible"><path
     d="m 5.77,0 -8.65,5 0,-10 8.65,5 z"
     transform="scale(0.8,0.8)"
     id="path4356"
     style="fill-rule:evenodd;stroke:#000000;stroke-width:1pt;marker-start:none"
     inkscape:connector-curvature="0" /></marker><marker
   refX="0"
   refY="0"
   orient="auto"
   id="Arrow1Lend"
   style="overflow:visible"><path
     d="M 0,0 5,-5 -12.5,0 5,5 0,0 z"
     transform="matrix(-0.8,0,0,-0.8,-10,0)"
     id="path4216"
     style="fill-rule:evenodd;stroke:#000000;stroke-width:1pt;marker-start:none"
     inkscape:connector-curvature="0" /></marker><marker
   refX="0"
   refY="0"
   orient="auto"
   id="Arrow2Lend"
   style="overflow:visible"><path
     d="M 8.7185878,4.0337352 -2.2072895,0.01601326 8.7185884,-4.0017078 c -1.7454984,2.3720609 -1.7354408,5.6174519 -6e-7,8.035443 z"
     transform="matrix(-1.1,0,0,-1.1,-1.1,0)"
     id="path4234"
     style="font-size:12px;fill-rule:evenodd;stroke-width:0.625;stroke-linejoin:round"
     inkscape:connector-curvature="0" /></marker><marker
   refX="0"
   refY="0"
   orient="auto"
   id="Arrow2Lstart"
   style="overflow:visible"><path
     d="M 8.7185878,4.0337352 -2.2072895,0.01601326 8.7185884,-4.0017078 c -1.7454984,2.3720609 -1.7354408,5.6174519 -6e-7,8.035443 z"
     transform="matrix(1.1,0,0,1.1,1.1,0)"
     id="path4231"
     style="font-size:12px;fill-rule:evenodd;stroke-width:0.625;stroke-linejoin:round"
     inkscape:connector-curvature="0" /></marker>
  <style
   type="text/css"
   id="style6" />
 <marker
   refX="0"
   refY="0"
   orient="auto"
   id="TriangleOutSU"
   style="overflow:visible"><path
     d="m 5.77,0 -8.65,5 0,-10 8.65,5 z"
     transform="scale(0.2,0.2)"
     id="path5625"
     style="fill:#2b2828;fill-rule:evenodd;stroke:#2b2828;stroke-width:1pt;marker-start:none"
     inkscape:connector-curvature="0" /></marker><marker
   refX="0"
   refY="0"
   orient="auto"
   id="TriangleOutSU-2"
   style="overflow:visible"><path
     d="m 5.77,0 -8.65,5 0,-10 8.65,5 z"
     transform="scale(0.2,0.2)"
     id="path5625-2"
     style="fill:#2b2828;fill-rule:evenodd;stroke:#2b2828;stroke-width:1pt;marker-start:none"
     inkscape:connector-curvature="0" /></marker><marker
   refX="0"
   refY="0"
   orient="auto"
   id="TriangleOutSI"
   style="overflow:visible"><path
     d="m 5.77,0 -8.65,5 0,-10 8.65,5 z"
     transform="scale(0.2,0.2)"
     id="path6762"
     style="fill:#2b2828;fill-rule:evenodd;stroke:#2b2828;stroke-width:1pt;marker-start:none"
     inkscape:connector-curvature="0" /></marker><marker
   refX="0"
   refY="0"
   orient="auto"
   id="TriangleOutMu"
   style="overflow:visible"><path
     d="m 5.77,0 -8.65,5 0,-10 8.65,5 z"
     transform="scale(0.4,0.4)"
     id="path10716"
     style="fill:#2b2828;fill-rule:evenodd;stroke:#2b2828;stroke-width:1pt;marker-start:none"
     inkscape:connector-curvature="0" /></marker><marker
   refX="0"
   refY="0"
   orient="auto"
   id="TriangleOutMY"
   style="overflow:visible"><path
     d="m 5.77,0 -8.65,5 0,-10 8.65,5 z"
     transform="scale(0.4,0.4)"
     id="path10719"
     style="fill:#2b2828;fill-rule:evenodd;stroke:#2b2828;stroke-width:1pt;marker-start:none"
     inkscape:connector-curvature="0" /></marker><marker
   refX="0"
   refY="0"
   orient="auto"
   id="TriangleOutM1"
   style="overflow:visible"><path
     d="m 5.77,0 -8.65,5 0,-10 8.65,5 z"
     transform="scale(0.4,0.4)"
     id="path11856"
     style="fill:#2b2828;fill-rule:evenodd;stroke:#2b2828;stroke-width:1pt;marker-start:none"
     inkscape:connector-curvature="0" /></marker><marker
   refX="0"
   refY="0"
   orient="auto"
   id="TriangleOutM1-2"
   style="overflow:visible"><path
     d="m 5.77,0 -8.65,5 0,-10 8.65,5 z"
     transform="scale(0.4,0.4)"
     id="path11856-5"
     style="fill:#2b2828;fill-rule:evenodd;stroke:#2b2828;stroke-width:1pt;marker-start:none"
     inkscape:connector-curvature="0" /></marker><marker
   refX="0"
   refY="0"
   orient="auto"
   id="TriangleOutM1-6"
   style="overflow:visible"><path
     d="m 5.77,0 -8.65,5 0,-10 8.65,5 z"
     transform="scale(0.4,0.4)"
     id="path11856-54"
     style="fill:#2b2828;fill-rule:evenodd;stroke:#2b2828;stroke-width:1pt;marker-start:none"
     inkscape:connector-curvature="0" /></marker><marker
   refX="0"
   refY="0"
   orient="auto"
   id="TriangleOutM1-4"
   style="overflow:visible"><path
     d="m 5.77,0 -8.65,5 0,-10 8.65,5 z"
     transform="scale(0.4,0.4)"
     id="path11856-9"
     style="fill:#2b2828;fill-rule:evenodd;stroke:#2b2828;stroke-width:1pt;marker-start:none"
     inkscape:connector-curvature="0" /></marker><marker
   refX="0"
   refY="0"
   orient="auto"
   id="TriangleOutM1-1"
   style="overflow:visible"><path
     d="m 5.77,0 -8.65,5 0,-10 8.65,5 z"
     transform="scale(0.4,0.4)"
     id="path11856-97"
     style="fill:#2b2828;fill-rule:evenodd;stroke:#2b2828;stroke-width:1pt;marker-start:none"
     inkscape:connector-curvature="0" /></marker><marker
   refX="0"
   refY="0"
   orient="auto"
   id="TriangleOutM1-64"
   style="overflow:visible"><path
     d="m 5.77,0 -8.65,5 0,-10 8.65,5 z"
     transform="scale(0.4,0.4)"
     id="path11856-3"
     style="fill:#2b2828;fill-rule:evenodd;stroke:#2b2828;stroke-width:1pt;marker-start:none"
     inkscape:connector-curvature="0" /></marker><marker
   refX="0"
   refY="0"
   orient="auto"
   id="TriangleOutM1-5"
   style="overflow:visible"><path
     d="m 5.77,0 -8.65,5 0,-10 8.65,5 z"
     transform="scale(0.4,0.4)"
     id="path11856-55"
     style="fill:#2b2828;fill-rule:evenodd;stroke:#2b2828;stroke-width:1pt;marker-start:none"
     inkscape:connector-curvature="0" /></marker><marker
   refX="0"
   refY="0"
   orient="auto"
   id="TriangleOutM1-9"
   style="overflow:visible"><path
     d="m 5.77,0 -8.65,5 0,-10 8.65,5 z"
     transform="scale(0.4,0.4)"
     id="path11856-0"
     style="fill:#2b2828;fill-rule:evenodd;stroke:#2b2828;stroke-width:1pt;marker-start:none"
     inkscape:connector-curvature="0" /></marker><marker
   refX="0"
   refY="0"
   orient="auto"
   id="TriangleOutM1-17"
   style="overflow:visible"><path
     d="m 5.77,0 -8.65,5 0,-10 8.65,5 z"
     transform="scale(0.4,0.4)"
     id="path11856-4"
     style="fill:#2b2828;fill-rule:evenodd;stroke:#2b2828;stroke-width:1pt;marker-start:none"
     inkscape:connector-curvature="0" /></marker><marker
   refX="0"
   refY="0"
   orient="auto"
   id="TriangleOutMF"
   style="overflow:visible"><path
     d="m 5.77,0 -8.65,5 0,-10 8.65,5 z"
     transform="scale(0.4,0.4)"
     id="path3528"
     style="fill:#2b2828;fill-rule:evenodd;stroke:#2b2828;stroke-width:1pt;marker-start:none"
     inkscape:connector-curvature="0" /></marker>
  
  
  
  
  
  
  
  
  
  
  
  
  
  
  
  
  
  
  
  
  
  
  
  
  
  
  
  
  
  
  
  
  
  
  
  
  
  
  
  
  
  
  
  
  
  
  
  
  
  
  
  
  
  
  
  
  
  
  
  
  
  
  
  
  
  
  
  
  
  
  
  
  
  
  
  
  
  
  
  
  
  
  
  
  
  
  
  
  
  
  
  
  
  
  
  
  
  
  
  
  
  
  
  
  
  
  
  
  
  
  
  
  
  
  
  
  
  
  
  
  
  
  
  
  
  
  
  
  
  
  
  
  
  
  
  
  
  
  
  
  
  
  
  
  
  
  
  
  
  
  
  
  
  
  
  
  
  
  
  
  
  
  
  
  
  
  
  
  
  
  
  
  
  
  
  
  
  
  
  
  
  
  
  
  
  
  
  
  
  
  
  
  
  
  
  
  
  
  
  
  
  
  
  
  
  
  
  
  
  
  
  
  
  
  
  
  
  
  
  
  
  
  
  
  
  
  
  
  
  
  
  
  
  
  
  
  
  
  
  
  
  
  
  
  
  
  
  
  
  
  
  
  
  
  
  
  
  
  
  
  
  
  
  
  
  
  
  
  
  
  
  
  
  
  
  
  
  
  
  
  
  
  
  
  
  
  
  
 </defs>
 <g
   id="g8614"
   transform="translate(178.02567,-36.540379)"><g
     id="g3205"
     transform="matrix(0.99524859,0,0,0.99524859,-27.179654,-185.64087)"><g
       transform="matrix(2.4736682,0,0,2.4736682,-328.66268,-66.115689)"
       id="g5894"><path
         d="m 95,121 19,0 c 2,0 3,1 3,3 l 0,18 c 0,1 -1,3 -3,3 l -19,0 c -1,0 -3,-2 -3,-3 l 0,-18 c 0,-2 2,-3 3,-3 z"
         id="path41"
         style="fill:#729fcf;stroke:#202326;stroke-width:0"
         inkscape:connector-curvature="0" /><g
         transform="matrix(0.774557,0,0,0.77345,-210.373,-10.3173)"
         id="g201">
   <text
   x="400"
   y="192"
   id="text203"
   style="font-size:18px;font-weight:normal;fill:#2b2828;font-family:Arial">Q</text>















  </g></g><g
       transform="matrix(2.4736682,0,0,2.4736682,-328.66268,-66.115689)"
       id="g5899"><path
         d="m 124,121 20,0 c 2,0 3,1 3,3 l 0,18 c 0,1 -1,3 -3,3 l -20,0 c -1,0 -3,-2 -3,-3 l 0,-18 c 0,-2 2,-3 3,-3 z"
         id="path43"
         style="fill:#729fcf;stroke:#202326;stroke-width:0"
         inkscape:connector-curvature="0" /><g
         transform="matrix(0.774557,0,0,0.77345,-182.661,-10.3173)"
         id="g205">
   <text
   x="400"
   y="192"
   id="text207"
   style="font-size:18px;font-weight:normal;fill:#2b2828;font-family:Arial">W</text>















  </g></g><g
       transform="matrix(2.4736682,0,0,2.4736682,-328.66268,-66.115689)"
       id="g5919"><path
         d="m 243,121 20,0 c 2,0 3,1 3,3 l 0,18 c 0,1 -1,3 -3,3 l -20,0 c -1,0 -2,-2 -2,-3 l 0,-18 c 0,-2 1,-3 2,-3 z"
         id="path51"
         style="fill:#729fcf;stroke:#202326;stroke-width:0"
         inkscape:connector-curvature="0" /><g
         transform="matrix(0.774557,0,0,0.77345,-60.9247,-10.3173)"
         id="g221">
   <text
   x="400"
   y="192"
   id="text223"
   style="font-size:18px;font-weight:normal;fill:#2b2828;font-family:Arial">Y</text>















  </g></g><g
       transform="matrix(2.4736682,0,0,2.4736682,-328.66268,-66.115689)"
       id="g5924"><path
         d="m 273,121 20,0 c 2,0 3,1 3,3 l 0,18 c 0,1 -1,3 -3,3 l -20,0 c -1,0 -2,-2 -2,-3 l 0,-18 c 0,-2 1,-3 2,-3 z"
         id="path53"
         style="fill:#729fcf;stroke:#202326;stroke-width:0"
         inkscape:connector-curvature="0" /><g
         transform="matrix(0.774557,0,0,0.77345,-31.2329,-10.3173)"
         id="g225">
   <text
   x="400"
   y="192"
   id="text227"
   style="font-size:18px;font-weight:normal;fill:#2b2828;font-family:Arial">U</text>















  </g></g><g
       transform="matrix(2.4736682,0,0,2.4736682,-328.66268,-66.115689)"
       id="g5929"><path
         d="m 302,121 20,0 c 2,0 3,1 3,3 l 0,18 c 0,1 -1,3 -3,3 l -20,0 c -1,0 -2,-2 -2,-3 l 0,-18 c 0,-2 1,-3 2,-3 z"
         id="path55"
         style="fill:#729fcf;stroke:#202326;stroke-width:0"
         inkscape:connector-curvature="0" /><g
         transform="matrix(0.774557,0,0,0.77345,1.42831,-10.3173)"
         id="g229">
   <text
   x="400"
   y="192"
   id="text231"
   style="font-size:18px;font-weight:normal;fill:#2b2828;font-family:Arial">I</text>















  </g></g><g
       transform="matrix(2.4736682,0,0,2.4736682,-328.66268,-66.115689)"
       id="g5934"><path
         d="m 332,121 20,0 c 2,0 3,1 3,3 l 0,18 c 0,1 -1,3 -3,3 l -20,0 c -1,0 -2,-2 -2,-3 l 0,-18 c 0,-2 1,-3 2,-3 z"
         id="path57"
         style="fill:#729fcf;stroke:#202326;stroke-width:0"
         inkscape:connector-curvature="0" /><g
         transform="matrix(0.774557,0,0,0.77345,27.1613,-10.3173)"
         id="g233">
   <text
   x="400"
   y="192"
   id="text235"
   style="font-size:18px;font-weight:normal;fill:#2b2828;font-family:Arial">O</text>















  </g></g><g
       transform="matrix(2.4736682,0,0,2.4736682,-328.66268,-66.115689)"
       id="g5939"><path
         d="m 362,121 20,0 c 2,0 3,1 3,3 l 0,18 c 0,1 -1,3 -3,3 l -20,0 c -1,0 -2,-2 -2,-3 l 0,-18 c 0,-2 1,-3 2,-3 z"
         id="path59"
         style="fill:#729fcf;stroke:#202326;stroke-width:0"
         inkscape:connector-curvature="0" /><g
         transform="matrix(0.774557,0,0,0.77345,57.8426,-10.3173)"
         id="g237">
   <text
   x="400"
   y="192"
   id="text239"
   style="font-size:18px;font-weight:normal;fill:#2b2828;font-family:Arial">P</text>















  </g></g><g
       transform="matrix(2.4736682,0,0,2.4736682,-328.66268,-66.115689)"
       id="g5944"><path
         d="m 103,147 19,0 c 1,0 3,1 3,2 l 0,19 c 0,1 -2,2 -3,2 l -19,0 c -2,0 -3,-1 -3,-2 l 0,-19 c 0,-1 1,-2 3,-2 z"
         id="path65"
         style="fill:#729fcf;stroke:#202326;stroke-width:0"
         inkscape:connector-curvature="0" /><g
         transform="matrix(0.774557,0,0,0.77345,-202.456,15.3789)"
         id="g241">
   <text
   x="400"
   y="192"
   id="text243"
   style="font-size:18px;font-weight:normal;fill:#2b2828;font-family:Arial">A</text>















  </g></g><g
       transform="matrix(2.4736682,0,0,2.4736682,-328.66268,-66.115689)"
       id="g5949"><path
         d="m 132,147 20,0 c 1,0 3,1 3,2 l 0,19 c 0,1 -2,2 -3,2 l -20,0 c -2,0 -3,-1 -3,-2 l 0,-19 c 0,-1 1,-2 3,-2 z"
         id="path67"
         style="fill:#729fcf;stroke:#202326;stroke-width:0"
         inkscape:connector-curvature="0" /><g
         transform="matrix(0.774557,0,0,0.77345,-171.774,15.3789)"
         id="g245">
   <text
   x="400"
   y="192"
   id="text247"
   style="font-size:18px;font-weight:normal;fill:#2b2828;font-family:Arial">S</text>















  </g></g><g
       transform="matrix(2.4736682,0,0,2.4736682,-328.66268,-66.115689)"
       id="g5954"><path
         d="m 162,147 20,0 c 2,0 3,1 3,2 l 0,19 c 0,1 -1,2 -3,2 l -20,0 c -2,0 -3,-1 -3,-2 l 0,-19 c 0,-1 1,-2 3,-2 z"
         id="path69"
         style="fill:#8ae234;stroke:#202326;stroke-width:0"
         inkscape:connector-curvature="0" /><g
         transform="matrix(0.774557,0,0,0.77345,-143.072,15.3789)"
         id="g249">
   <text
   x="401.24872"
   y="191.48485"
   id="text251"
   style="font-size:18px;font-weight:normal;fill:#2b2828;font-family:Arial">T</text>















  </g></g><g
       transform="matrix(2.4736682,0,0,2.4736682,-348.45203,-129.19423)"
       id="g5959"><path
         d="m 192,147 19,0 c 2,0 3,1 3,2 l 0,19 c 0,1 -1,2 -3,2 l -19,0 c -2,0 -3,-1 -3,-2 l 0,-19 c 0,-1 1,-2 3,-2 z"
         id="path71"
         style="fill:#729fcf;stroke:#202326;stroke-width:0"
         inkscape:connector-curvature="0" /><g
         transform="matrix(0.774557,0,0,0.77345,-112.39,15.3789)"
         id="g253">
   <text
   x="398.15823"
   y="191.48485"
   id="text255"
   style="font-size:18px;font-weight:normal;fill:#2b2828;font-family:Arial">R</text>















  </g></g><g
       transform="matrix(2.4736682,0,0,2.4736682,-328.66268,-66.115689)"
       id="g5964"><path
         d="m 221,147 20,0 c 2,0 3,1 3,2 l 0,19 c 0,1 -1,2 -3,2 l -20,0 c -2,0 -3,-1 -3,-2 l 0,-19 c 0,-1 1,-2 3,-2 z"
         id="path73"
         style="fill:#729fcf;stroke:#202326;stroke-width:0"
         inkscape:connector-curvature="0" /><g
         transform="matrix(0.774557,0,0,0.77345,-83.6883,15.3789)"
         id="g257">
   <text
   x="400"
   y="192"
   id="text259"
   style="font-size:18px;font-weight:normal;fill:#2b2828;font-family:Arial">G</text>















  </g></g><g
       transform="matrix(2.4736682,0,0,2.4736682,-328.66268,-66.115689)"
       id="g5969"><path
         d="m 251,147 20,0 c 2,0 3,1 3,2 l 0,19 c 0,1 -1,2 -3,2 l -20,0 c -1,0 -3,-1 -3,-2 l 0,-19 c 0,-1 2,-2 3,-2 z"
         id="path75"
         style="fill:#729fcf;stroke:#202326;stroke-width:0"
         inkscape:connector-curvature="0" /><g
         transform="matrix(0.774557,0,0,0.77345,-53.9965,15.3789)"
         id="g261">
   <text
   x="400"
   y="192"
   id="text263"
   style="font-size:18px;font-weight:normal;fill:#2b2828;font-family:Arial">H</text>















  </g></g><g
       transform="matrix(2.4736682,0,0,2.4736682,-328.66268,-66.115689)"
       id="g5984"><path
         d="m 340,147 20,0 c 2,0 3,1 3,2 l 0,19 c 0,1 -1,2 -3,2 l -20,0 c -1,0 -3,-1 -3,-2 l 0,-19 c 0,-1 2,-2 3,-2 z"
         id="path81"
         style="fill:#729fcf;stroke:#202326;stroke-width:0"
         inkscape:connector-curvature="0" /><g
         transform="matrix(0.774557,0,0,0.77345,36.0689,15.3789)"
         id="g273">
   <text
   x="400"
   y="192"
   id="text275"
   style="font-size:18px;font-weight:normal;fill:#2b2828;font-family:Arial">L</text>















  </g></g><g
       transform="matrix(2.4736682,0,0,2.4736682,-328.66268,-66.115689)"
       id="g5996"><path
         d="m 113,172 21,0 c 1,0 2,2 2,3 l 0,17 c 0,2 -1,3 -2,3 l -21,0 c -1,0 -2,-1 -2,-3 l 0,-17 c 0,-1 1,-3 2,-3 z"
         id="path87"
         style="fill:#729fcf;stroke:#202326;stroke-width:0"
         inkscape:connector-curvature="0" /><g
         transform="matrix(0.774557,0,0,0.77345,-190.579,40.0868)"
         id="g277">
   <text
   x="400"
   y="192"
   id="text279"
   style="font-size:18px;font-weight:normal;fill:#2b2828;font-family:Arial">Z</text>















  </g></g><g
       transform="matrix(2.4736682,0,0,2.4736682,-328.66268,-66.115689)"
       id="g6001"><path
         d="m 143,172 21,0 c 1,0 2,2 2,3 l 0,17 c 0,2 -1,3 -2,3 l -21,0 c -1,0 -2,-1 -2,-3 l 0,-17 c 0,-1 1,-3 2,-3 z"
         id="path89"
         style="fill:#729fcf;stroke:#202326;stroke-width:0"
         inkscape:connector-curvature="0" /><g
         transform="matrix(0.774557,0,0,0.77345,-160.887,40.0868)"
         id="g281">
   <text
   x="400"
   y="192"
   id="text283"
   style="font-size:18px;font-weight:normal;fill:#2b2828;font-family:Arial">X</text>















  </g></g><g
       transform="matrix(2.4736682,0,0,2.4736682,-328.66268,-66.115689)"
       id="g6006"><path
         d="m 173,172 21,0 c 1,0 2,2 2,3 l 0,17 c 0,2 -1,3 -2,3 l -21,0 c -1,0 -2,-1 -2,-3 l 0,-17 c 0,-1 1,-3 2,-3 z"
         id="path91"
         style="fill:#729fcf;stroke:#202326;stroke-width:0"
         inkscape:connector-curvature="0" /><g
         transform="matrix(0.774557,0,0,0.77345,-131.195,40.0868)"
         id="g285">
   <text
   x="400"
   y="192"
   id="text287"
   style="font-size:18px;font-weight:normal;fill:#2b2828;font-family:Arial">C</text>















  </g></g><g
       transform="matrix(2.4736682,0,0,2.4736682,-328.66268,-66.115689)"
       id="g6011"><path
         d="m 202,172 21,0 c 1,0 2,2 2,3 l 0,17 c 0,2 -1,3 -2,3 l -21,0 c 0,0 -1,-1 -1,-3 l 0,-17 c 0,-1 1,-3 1,-3 z"
         id="path195"
         style="fill:#729fcf;stroke:#202326;stroke-width:0"
         inkscape:connector-curvature="0" /><g
         transform="matrix(0.774557,0,0,0.77345,-101.504,40.0868)"
         id="g289">
   <text
   x="400"
   y="192"
   id="text291"
   style="font-size:18px;font-weight:normal;fill:#2b2828;font-family:Arial">V</text>















  </g></g><g
       transform="matrix(2.4736682,0,0,2.4736682,-328.66268,-66.115689)"
       id="g6016"><path
         d="m 233,172 20,0 c 1,0 2,2 2,3 l 0,17 c 0,2 -1,3 -2,3 l -20,0 c -2,0 -3,-1 -3,-3 l 0,-17 c 0,-1 1,-3 3,-3 z"
         id="path93"
         style="fill:#729fcf;stroke:#202326;stroke-width:0"
         inkscape:connector-curvature="0" /><g
         transform="matrix(0.774557,0,0,0.77345,-71.8117,40.0868)"
         id="g293">
   <text
   x="400"
   y="192"
   id="text295"
   style="font-size:18px;font-weight:normal;fill:#2b2828;font-family:Arial">B</text>















  </g></g><g
       transform="matrix(2.4736682,0,0,2.4736682,-328.66268,-66.115689)"
       id="g5989"><path
         d="m 370,147 20,0 c 2,0 3,1 3,2 l 0,19 c 0,1 -1,2 -3,2 l -20,0 c -1,0 -3,-1 -3,-2 l 0,-19 c 0,-1 2,-2 3,-2 z"
         id="path83"
         style="fill:#729fcf;stroke:#202326;stroke-width:0"
         inkscape:connector-curvature="0" /><g
         transform="matrix(0.774557,0,0,0.77345,59.8224,18.3438)"
         id="g693">
   <text
   x="400"
   y="192"
   id="text695"
   style="font-size:12px;font-weight:normal;fill:#2b2828;font-family:Arial">;</text>















  </g><g
         transform="matrix(0.774557,0,0,0.77345,59.8224,5.49565)"
         id="g697">
   <text
   x="400"
   y="192"
   id="text699"
   style="font-size:12px;font-weight:normal;fill:#2b2828;font-family:Arial">:</text>















  </g></g><g
       transform="matrix(2.4736682,0,0,2.4736682,57.229556,-3.037151)"
       id="g3135"><path
         inkscape:connector-curvature="0"
         style="fill:#8ae234;stroke:#202326;stroke-width:0"
         id="path3137"
         d="m 154,121 20,0 c 2,0 3,1 3,3 l 0,18 c 0,1 -1,3 -3,3 l -20,0 c -1,0 -3,-2 -3,-3 l 0,-18 c 0,-2 2,-3 3,-3 z" /><g
         id="g3139"
         transform="matrix(0.774557,0,0,0.77345,-150,-10.3173)">
   <text
   style="font-size:18px;font-weight:normal;fill:#2b2828;font-family:Arial"
   id="text3141"
   y="192"
   x="400">E</text>















  </g></g><g
       transform="matrix(2.4736682,0,0,2.4736682,-383.08338,-3.037151)"
       id="g3151"><path
         inkscape:connector-curvature="0"
         style="fill:#729fcf;stroke:#202326;stroke-width:0"
         id="path3153"
         d="m 213,121 20,0 c 2,0 3,1 3,3 l 0,18 c 0,1 -1,3 -3,3 l -20,0 c -1,0 -2,-2 -2,-3 l 0,-18 c 0,-2 1,-3 2,-3 z" /><g
         id="g3155"
         transform="matrix(0.774557,0,0,0.77345,-90.6165,-10.3173)">
   <text
   style="font-size:18px;font-weight:normal;fill:#2b2828;font-family:Arial"
   id="text3157"
   y="191.73853"
   x="399.72067">F</text>















  </g></g><g
       transform="matrix(2.4736682,0,0,2.4736682,-401.63589,-66.115689)"
       id="g3159"><path
         inkscape:connector-curvature="0"
         style="fill:#8ae234;stroke:#202326;stroke-width:0"
         id="path3161"
         d="m 184,121 19,0 c 2,0 3,1 3,3 l 0,18 c 0,1 -1,3 -3,3 l -19,0 c -1,0 -3,-2 -3,-3 l 0,-18 c 0,-2 2,-3 3,-3 z" /><g
         id="g3163"
         transform="matrix(0.774557,0,0,0.77345,-121.298,-10.3173)">
   <text
   style="font-size:18px;font-weight:normal;fill:#2b2828;font-family:Arial"
   id="text3165"
   y="191.73853"
   x="399.70844">D</text>















  </g></g><g
       transform="matrix(2.4736682,0,0,2.4736682,-494.39845,-129.19423)"
       id="g3167"><path
         inkscape:connector-curvature="0"
         style="fill:#8ae234;stroke:#202326;stroke-width:0"
         id="path3169"
         d="m 281,147 19,0 c 2,0 3,1 3,2 l 0,19 c 0,1 -1,2 -3,2 l -19,0 c -1,0 -3,-1 -3,-2 l 0,-19 c 0,-1 2,-2 3,-2 z" /><g
         id="g3171"
         transform="matrix(0.774557,0,0,0.77345,-22.3252,15.3789)">
   <text
   style="font-size:18px;font-weight:normal;fill:#2b2828;font-family:Arial"
   id="text3173"
   y="191.48485"
   x="396.3924">M</text>















  </g></g><g
       transform="matrix(2.4736682,0,0,2.4736682,-284.13665,-127.9574)"
       id="g3175"><path
         inkscape:connector-curvature="0"
         style="fill:#8ae234;stroke:#202326;stroke-width:0"
         id="path3177"
         d="m 263,172 20,0 c 1,0 2,2 2,3 l 0,17 c 0,2 -1,3 -2,3 l -20,0 c -2,0 -3,-1 -3,-3 l 0,-17 c 0,-1 1,-3 3,-3 z" /><g
         id="g3179"
         transform="matrix(0.774557,0,0,0.77345,-42.1195,40.0868)">
   <text
   style="font-size:18px;font-weight:normal;fill:#2b2828;font-family:Arial"
   id="text3181"
   y="192"
   x="400">N</text>















  </g></g><g
       id="g3162"
       transform="matrix(2.4736682,0,0,2.4736682,-373.18871,-4.2739854)"><path
         inkscape:connector-curvature="0"
         style="fill:#8ae234;stroke:#202326;stroke-width:0"
         id="path3164"
         d="m 310,147 20,0 c 2,0 3,1 3,2 l 0,19 c 0,1 -1,2 -3,2 l -20,0 c -1,0 -3,-1 -3,-2 l 0,-19 c 0,-1 2,-2 3,-2 z" /><g
         id="g3166"
         transform="matrix(0.774557,0,0,0.77345,5.38717,15.3789)">
   <text
   style="font-size:18px;font-weight:normal;fill:#2b2828;font-family:Arial"
   id="text3168"
   y="192"
   x="400">K</text>















  </g></g><g
       id="g3170"
       transform="matrix(2.4736682,0,0,2.4736682,-373.18871,-4.2739854)"><path
         d="m 281,147 19,0 c 2,0 3,1 3,2 l 0,19 c 0,1 -1,2 -3,2 l -19,0 c -1,0 -3,-1 -3,-2 l 0,-19 c 0,-1 2,-2 3,-2 z"
         id="path3172"
         style="fill:#8ae234;stroke:#202326;stroke-width:0"
         inkscape:connector-curvature="0" /><g
         transform="matrix(0.774557,0,0,0.77345,-22.3252,15.3789)"
         id="g3174">
   <text
   x="400"
   y="192"
   id="text3176"
   style="font-size:18px;font-weight:normal;fill:#2b2828;font-family:Arial">J</text>















  </g></g></g></g>
</svg>