<?xml version="1.0" encoding="UTF-8" standalone="no"?>
<!-- Created with Inkscape (http://www.inkscape.org/) -->

<svg
   xmlns:dc="http://purl.org/dc/elements/1.1/"
   xmlns:cc="http://creativecommons.org/ns#"
   xmlns:rdf="http://www.w3.org/1999/02/22-rdf-syntax-ns#"
   xmlns:svg="http://www.w3.org/2000/svg"
   xmlns="http://www.w3.org/2000/svg"
   xmlns:sodipodi="http://sodipodi.sourceforge.net/DTD/sodipodi-0.dtd"
   xmlns:inkscape="http://www.inkscape.org/namespaces/inkscape"
   version="1.1"
   width="325"
   height="100"
   viewBox="0 0 325.40676 99.74026"
   id="svg2"
   xml:space="preserve"
   style="fill-rule:evenodd"
   inkscape:version="0.48.2 r9819"
   sodipodi:docname="qwerty2.svg"
   inkscape:export-filename="C:\Users\Ted\Downloads\qwerty2.png"
   inkscape:export-xdpi="90"
   inkscape:export-ydpi="90"><sodipodi:namedview
   pagecolor="#ffffff"
   bordercolor="#666666"
   borderopacity="1"
   objecttolerance="10"
   gridtolerance="10"
   guidetolerance="10"
   inkscape:pageopacity="0"
   inkscape:pageshadow="2"
   inkscape:window-width="1366"
   inkscape:window-height="746"
   id="namedview484"
   showgrid="false"
   inkscape:zoom="3.2153101"
   inkscape:cx="113.20837"
   inkscape:cy="34.372569"
   inkscape:window-x="-8"
   inkscape:window-y="-8"
   inkscape:window-maximized="1"
   inkscape:current-layer="svg2"
   fit-margin-top="0"
   fit-margin-left="0"
   fit-margin-right="0"
   fit-margin-bottom="0" /><metadata
   id="metadata872"><rdf:RDF><cc:Work
       rdf:about=""><dc:format>image/svg+xml</dc:format><dc:type
         rdf:resource="http://purl.org/dc/dcmitype/StillImage" /><dc:title /></cc:Work></rdf:RDF></metadata>
 <defs
   id="defs4"><marker
   refX="0"
   refY="0"
   orient="auto"
   id="TriangleOutM"
   style="overflow:visible"><path
     d="m 5.77,0 -8.65,5 0,-10 8.65,5 z"
     transform="scale(0.4,0.4)"
     id="path4359"
     style="fill-rule:evenodd;stroke:#000000;stroke-width:1pt;marker-start:none"
     inkscape:connector-curvature="0" /></marker><marker
   refX="0"
   refY="0"
   orient="auto"
   id="TriangleOutS"
   style="overflow:visible"><path
     d="m 5.77,0 -8.65,5 0,-10 8.65,5 z"
     transform="scale(0.2,0.2)"
     id="path4362"
     style="fill-rule:evenodd;stroke:#000000;stroke-width:1pt;marker-start:none"
     inkscape:connector-curvature="0" /></marker><marker
   refX="0"
   refY="0"
   orient="auto"
   id="TriangleOutL"
   style="overflow:visible"><path
     d="m 5.77,0 -8.65,5 0,-10 8.65,5 z"
     transform="scale(0.8,0.8)"
     id="path4356"
     style="fill-rule:evenodd;stroke:#000000;stroke-width:1pt;marker-start:none"
     inkscape:connector-curvature="0" /></marker><marker
   refX="0"
   refY="0"
   orient="auto"
   id="Arrow1Lend"
   style="overflow:visible"><path
     d="M 0,0 5,-5 -12.5,0 5,5 0,0 z"
     transform="matrix(-0.8,0,0,-0.8,-10,0)"
     id="path4216"
     style="fill-rule:evenodd;stroke:#000000;stroke-width:1pt;marker-start:none"
     inkscape:connector-curvature="0" /></marker><marker
   refX="0"
   refY="0"
   orient="auto"
   id="Arrow2Lend"
   style="overflow:visible"><path
     d="M 8.7185878,4.0337352 -2.2072895,0.01601326 8.7185884,-4.0017078 c -1.7454984,2.3720609 -1.7354408,5.6174519 -6e-7,8.035443 z"
     transform="matrix(-1.1,0,0,-1.1,-1.1,0)"
     id="path4234"
     style="font-size:12px;fill-rule:evenodd;stroke-width:0.625;stroke-linejoin:round"
     inkscape:connector-curvature="0" /></marker><marker
   refX="0"
   refY="0"
   orient="auto"
   id="Arrow2Lstart"
   style="overflow:visible"><path
     d="M 8.7185878,4.0337352 -2.2072895,0.01601326 8.7185884,-4.0017078 c -1.7454984,2.3720609 -1.7354408,5.6174519 -6e-7,8.035443 z"
     transform="matrix(1.1,0,0,1.1,1.1,0)"
     id="path4231"
     style="font-size:12px;fill-rule:evenodd;stroke-width:0.625;stroke-linejoin:round"
     inkscape:connector-curvature="0" /></marker>
  <style
   type="text/css"
   id="style6" />
 <marker
   refX="0"
   refY="0"
   orient="auto"
   id="TriangleOutSU"
   style="overflow:visible"><path
     d="m 5.77,0 -8.65,5 0,-10 8.65,5 z"
     transform="scale(0.2,0.2)"
     id="path5625"
     style="fill:#2b2828;fill-rule:evenodd;stroke:#2b2828;stroke-width:1pt;marker-start:none"
     inkscape:connector-curvature="0" /></marker><marker
   refX="0"
   refY="0"
   orient="auto"
   id="TriangleOutSU-2"
   style="overflow:visible"><path
     d="m 5.77,0 -8.65,5 0,-10 8.65,5 z"
     transform="scale(0.2,0.2)"
     id="path5625-2"
     style="fill:#2b2828;fill-rule:evenodd;stroke:#2b2828;stroke-width:1pt;marker-start:none"
     inkscape:connector-curvature="0" /></marker><marker
   refX="0"
   refY="0"
   orient="auto"
   id="TriangleOutSI"
   style="overflow:visible"><path
     d="m 5.77,0 -8.65,5 0,-10 8.65,5 z"
     transform="scale(0.2,0.2)"
     id="path6762"
     style="fill:#2b2828;fill-rule:evenodd;stroke:#2b2828;stroke-width:1pt;marker-start:none"
     inkscape:connector-curvature="0" /></marker><marker
   refX="0"
   refY="0"
   orient="auto"
   id="TriangleOutMu"
   style="overflow:visible"><path
     d="m 5.77,0 -8.65,5 0,-10 8.65,5 z"
     transform="scale(0.4,0.4)"
     id="path10716"
     style="fill:#2b2828;fill-rule:evenodd;stroke:#2b2828;stroke-width:1pt;marker-start:none"
     inkscape:connector-curvature="0" /></marker><marker
   refX="0"
   refY="0"
   orient="auto"
   id="TriangleOutMY"
   style="overflow:visible"><path
     d="m 5.77,0 -8.65,5 0,-10 8.65,5 z"
     transform="scale(0.4,0.4)"
     id="path10719"
     style="fill:#2b2828;fill-rule:evenodd;stroke:#2b2828;stroke-width:1pt;marker-start:none"
     inkscape:connector-curvature="0" /></marker><marker
   refX="0"
   refY="0"
   orient="auto"
   id="TriangleOutM1"
   style="overflow:visible"><path
     d="m 5.77,0 -8.65,5 0,-10 8.65,5 z"
     transform="scale(0.4,0.4)"
     id="path11856"
     style="fill:#2b2828;fill-rule:evenodd;stroke:#2b2828;stroke-width:1pt;marker-start:none"
     inkscape:connector-curvature="0" /></marker><marker
   refX="0"
   refY="0"
   orient="auto"
   id="TriangleOutM1-2"
   style="overflow:visible"><path
     d="m 5.77,0 -8.65,5 0,-10 8.65,5 z"
     transform="scale(0.4,0.4)"
     id="path11856-5"
     style="fill:#2b2828;fill-rule:evenodd;stroke:#2b2828;stroke-width:1pt;marker-start:none"
     inkscape:connector-curvature="0" /></marker><marker
   refX="0"
   refY="0"
   orient="auto"
   id="TriangleOutM1-6"
   style="overflow:visible"><path
     d="m 5.77,0 -8.65,5 0,-10 8.65,5 z"
     transform="scale(0.4,0.4)"
     id="path11856-54"
     style="fill:#2b2828;fill-rule:evenodd;stroke:#2b2828;stroke-width:1pt;marker-start:none"
     inkscape:connector-curvature="0" /></marker><marker
   refX="0"
   refY="0"
   orient="auto"
   id="TriangleOutM1-4"
   style="overflow:visible"><path
     d="m 5.77,0 -8.65,5 0,-10 8.65,5 z"
     transform="scale(0.4,0.4)"
     id="path11856-9"
     style="fill:#2b2828;fill-rule:evenodd;stroke:#2b2828;stroke-width:1pt;marker-start:none"
     inkscape:connector-curvature="0" /></marker><marker
   refX="0"
   refY="0"
   orient="auto"
   id="TriangleOutM1-1"
   style="overflow:visible"><path
     d="m 5.77,0 -8.65,5 0,-10 8.65,5 z"
     transform="scale(0.4,0.4)"
     id="path11856-97"
     style="fill:#2b2828;fill-rule:evenodd;stroke:#2b2828;stroke-width:1pt;marker-start:none"
     inkscape:connector-curvature="0" /></marker><marker
   refX="0"
   refY="0"
   orient="auto"
   id="TriangleOutM1-64"
   style="overflow:visible"><path
     d="m 5.77,0 -8.65,5 0,-10 8.65,5 z"
     transform="scale(0.4,0.4)"
     id="path11856-3"
     style="fill:#2b2828;fill-rule:evenodd;stroke:#2b2828;stroke-width:1pt;marker-start:none"
     inkscape:connector-curvature="0" /></marker><marker
   refX="0"
   refY="0"
   orient="auto"
   id="TriangleOutM1-5"
   style="overflow:visible"><path
     d="m 5.77,0 -8.65,5 0,-10 8.65,5 z"
     transform="scale(0.4,0.4)"
     id="path11856-55"
     style="fill:#2b2828;fill-rule:evenodd;stroke:#2b2828;stroke-width:1pt;marker-start:none"
     inkscape:connector-curvature="0" /></marker><marker
   refX="0"
   refY="0"
   orient="auto"
   id="TriangleOutM1-9"
   style="overflow:visible"><path
     d="m 5.77,0 -8.65,5 0,-10 8.65,5 z"
     transform="scale(0.4,0.4)"
     id="path11856-0"
     style="fill:#2b2828;fill-rule:evenodd;stroke:#2b2828;stroke-width:1pt;marker-start:none"
     inkscape:connector-curvature="0" /></marker><marker
   refX="0"
   refY="0"
   orient="auto"
   id="TriangleOutM1-17"
   style="overflow:visible"><path
     d="m 5.77,0 -8.65,5 0,-10 8.65,5 z"
     transform="scale(0.4,0.4)"
     id="path11856-4"
     style="fill:#2b2828;fill-rule:evenodd;stroke:#2b2828;stroke-width:1pt;marker-start:none"
     inkscape:connector-curvature="0" /></marker><marker
   refX="0"
   refY="0"
   orient="auto"
   id="TriangleOutMF"
   style="overflow:visible"><path
     d="m 5.77,0 -8.65,5 0,-10 8.65,5 z"
     transform="scale(0.4,0.4)"
     id="path3528"
     style="fill:#2b2828;fill-rule:evenodd;stroke:#2b2828;stroke-width:1pt;marker-start:none"
     inkscape:connector-curvature="0" /></marker>
  
  
  
  
  
  
  
  
  
  
  
  
  
  
  
  
  
  
  
  
  
  
  
  
  
  
  
  
  
  
  
  
  
  
  
  
  
  
  
  
  
  
  
  
  
  
  
  
  
  
  
  
  
  
  
  
  
  
  
  
  
  
  
  
  
  
  
  
  
  
  
  
  
  
  
  
  
  
  
  
  
  
  
  
  
  
  
  
  
  
  
  
  
  
  
  
  
  
  
  
  
  
  
  
  
  
  
  
  
  
  
  
  
  
  
  
  
  
  
  
  
  
  
  
  
  
  
  
  
  
  
  
  
  
  
  
  
  
  
  
  
  
  
  
  
  
  
  
  
  
  
  
  
  
  
  
  
  
  
  
  
  
  
  
  
  
  
  
  
  
  
  
  
  
  
  
  
  
  
  
  
  
  
  
  
  
  
  
  
  
  
  
  
  
  
  
  
  
  
  
  
  
  
  
  
  
  
  
  
  
  
  
  
  
  
  
  
  
  
  
  
  
  
  
  
  
  
  
  
  
  
  
  
  
  
  
  
  
  
  
  
  
  
  
  
  
  
  
  
  
  
  
  
  
  
  
  
  
  
  
  
  
  
  
  
  
  
  
  
  
  
  
  
  
  
  
  
  
  
  
  
  
  
  
  
  
  
  
 </defs>
 <g
   id="g8614"
   transform="translate(-79.79662,-108.12987)"><g
     id="g5894"><path
       inkscape:connector-curvature="0"
       style="fill:#fce94f;stroke:#202326;stroke-width:0"
       id="path41"
       d="m 95,121 19,0 c 2,0 3,1 3,3 l 0,18 c 0,1 -1,3 -3,3 l -19,0 c -1,0 -3,-2 -3,-3 l 0,-18 c 0,-2 2,-3 3,-3 z" /><g
       id="g201"
       transform="matrix(0.774557,0,0,0.77345,-210.373,-10.3173)">
   <text
   style="font-size:18px;font-weight:normal;fill:#2b2828;font-family:Arial"
   id="text203"
   y="192"
   x="400">Q</text>












  </g></g><g
     id="g5899"><path
       inkscape:connector-curvature="0"
       style="fill:#fce94f;stroke:#202326;stroke-width:0"
       id="path43"
       d="m 124,121 20,0 c 2,0 3,1 3,3 l 0,18 c 0,1 -1,3 -3,3 l -20,0 c -1,0 -3,-2 -3,-3 l 0,-18 c 0,-2 2,-3 3,-3 z" /><g
       id="g205"
       transform="matrix(0.774557,0,0,0.77345,-182.661,-10.3173)">
   <text
   style="font-size:18px;font-weight:normal;fill:#2b2828;font-family:Arial"
   id="text207"
   y="192"
   x="400">W</text>












  </g></g><g
     id="g5904"><path
       inkscape:connector-curvature="0"
       style="fill:#fce94f;stroke:#202326;stroke-width:0"
       id="path45"
       d="m 154,121 20,0 c 2,0 3,1 3,3 l 0,18 c 0,1 -1,3 -3,3 l -20,0 c -1,0 -3,-2 -3,-3 l 0,-18 c 0,-2 2,-3 3,-3 z" /><g
       id="g209"
       transform="matrix(0.774557,0,0,0.77345,-150,-10.3173)">
   <text
   style="font-size:18px;font-weight:normal;fill:#2b2828;font-family:Arial"
   id="text211"
   y="192"
   x="400">E</text>












  </g></g><g
     id="g5909"><path
       inkscape:connector-curvature="0"
       style="fill:#fce94f;stroke:#202326;stroke-width:0"
       id="path47"
       d="m 184,121 19,0 c 2,0 3,1 3,3 l 0,18 c 0,1 -1,3 -3,3 l -19,0 c -1,0 -3,-2 -3,-3 l 0,-18 c 0,-2 2,-3 3,-3 z" /><g
       id="g213"
       transform="matrix(0.774557,0,0,0.77345,-121.298,-10.3173)">
   <text
   style="font-size:18px;font-weight:normal;fill:#2b2828;font-family:Arial"
   id="text215"
   y="192"
   x="400">R</text>












  </g></g><g
     id="g5914"><path
       inkscape:connector-curvature="0"
       style="fill:#fce94f;stroke:#202326;stroke-width:0"
       id="path49"
       d="m 213,121 20,0 c 2,0 3,1 3,3 l 0,18 c 0,1 -1,3 -3,3 l -20,0 c -1,0 -2,-2 -2,-3 l 0,-18 c 0,-2 1,-3 2,-3 z" /><g
       id="g217"
       transform="matrix(0.774557,0,0,0.77345,-90.6165,-10.3173)">
   <text
   style="font-size:18px;font-weight:normal;fill:#2b2828;font-family:Arial"
   id="text219"
   y="192"
   x="400">T</text>












  </g></g><g
     id="g5919"><path
       inkscape:connector-curvature="0"
       style="fill:#fce94f;stroke:#202326;stroke-width:0"
       id="path51"
       d="m 243,121 20,0 c 2,0 3,1 3,3 l 0,18 c 0,1 -1,3 -3,3 l -20,0 c -1,0 -2,-2 -2,-3 l 0,-18 c 0,-2 1,-3 2,-3 z" /><g
       id="g221"
       transform="matrix(0.774557,0,0,0.77345,-60.9247,-10.3173)">
   <text
   style="font-size:18px;font-weight:normal;fill:#2b2828;font-family:Arial"
   id="text223"
   y="192"
   x="400">Y</text>












  </g></g><g
     id="g5924"><path
       inkscape:connector-curvature="0"
       style="fill:#fce94f;stroke:#202326;stroke-width:0"
       id="path53"
       d="m 273,121 20,0 c 2,0 3,1 3,3 l 0,18 c 0,1 -1,3 -3,3 l -20,0 c -1,0 -2,-2 -2,-3 l 0,-18 c 0,-2 1,-3 2,-3 z" /><g
       id="g225"
       transform="matrix(0.774557,0,0,0.77345,-31.2329,-10.3173)">
   <text
   style="font-size:18px;font-weight:normal;fill:#2b2828;font-family:Arial"
   id="text227"
   y="192"
   x="400">U</text>












  </g></g><g
     id="g5929"><path
       inkscape:connector-curvature="0"
       style="fill:#fce94f;stroke:#202326;stroke-width:0"
       id="path55"
       d="m 302,121 20,0 c 2,0 3,1 3,3 l 0,18 c 0,1 -1,3 -3,3 l -20,0 c -1,0 -2,-2 -2,-3 l 0,-18 c 0,-2 1,-3 2,-3 z" /><g
       id="g229"
       transform="matrix(0.774557,0,0,0.77345,1.42831,-10.3173)">
   <text
   style="font-size:18px;font-weight:normal;fill:#2b2828;font-family:Arial"
   id="text231"
   y="192"
   x="400">I</text>












  </g></g><g
     id="g5934"><path
       inkscape:connector-curvature="0"
       style="fill:#fce94f;stroke:#202326;stroke-width:0"
       id="path57"
       d="m 332,121 20,0 c 2,0 3,1 3,3 l 0,18 c 0,1 -1,3 -3,3 l -20,0 c -1,0 -2,-2 -2,-3 l 0,-18 c 0,-2 1,-3 2,-3 z" /><g
       id="g233"
       transform="matrix(0.774557,0,0,0.77345,27.1613,-10.3173)">
   <text
   style="font-size:18px;font-weight:normal;fill:#2b2828;font-family:Arial"
   id="text235"
   y="192"
   x="400">O</text>












  </g></g><g
     id="g5939"><path
       inkscape:connector-curvature="0"
       style="fill:#fce94f;stroke:#202326;stroke-width:0"
       id="path59"
       d="m 362,121 20,0 c 2,0 3,1 3,3 l 0,18 c 0,1 -1,3 -3,3 l -20,0 c -1,0 -2,-2 -2,-3 l 0,-18 c 0,-2 1,-3 2,-3 z" /><g
       id="g237"
       transform="matrix(0.774557,0,0,0.77345,57.8426,-10.3173)">
   <text
   style="font-size:18px;font-weight:normal;fill:#2b2828;font-family:Arial"
   id="text239"
   y="192"
   x="400">P</text>












  </g></g><g
     id="g5944"><path
       inkscape:connector-curvature="0"
       style="fill:#8ae234;stroke:#202326;stroke-width:0"
       id="path65"
       d="m 103,147 19,0 c 1,0 3,1 3,2 l 0,19 c 0,1 -2,2 -3,2 l -19,0 c -2,0 -3,-1 -3,-2 l 0,-19 c 0,-1 1,-2 3,-2 z" /><g
       id="g241"
       transform="matrix(0.774557,0,0,0.77345,-202.456,15.3789)">
   <text
   style="font-size:18px;font-weight:normal;fill:#2b2828;font-family:Arial"
   id="text243"
   y="192"
   x="400">A</text>












  </g></g><g
     id="g5949"><path
       inkscape:connector-curvature="0"
       style="fill:#8ae234;stroke:#202326;stroke-width:0"
       id="path67"
       d="m 132,147 20,0 c 1,0 3,1 3,2 l 0,19 c 0,1 -2,2 -3,2 l -20,0 c -2,0 -3,-1 -3,-2 l 0,-19 c 0,-1 1,-2 3,-2 z" /><g
       id="g245"
       transform="matrix(0.774557,0,0,0.77345,-171.774,15.3789)">
   <text
   style="font-size:18px;font-weight:normal;fill:#2b2828;font-family:Arial"
   id="text247"
   y="192"
   x="400">S</text>












  </g></g><g
     id="g5954"><path
       inkscape:connector-curvature="0"
       style="fill:#8ae234;stroke:#202326;stroke-width:0"
       id="path69"
       d="m 162,147 20,0 c 2,0 3,1 3,2 l 0,19 c 0,1 -1,2 -3,2 l -20,0 c -2,0 -3,-1 -3,-2 l 0,-19 c 0,-1 1,-2 3,-2 z" /><g
       id="g249"
       transform="matrix(0.774557,0,0,0.77345,-143.072,15.3789)">
   <text
   style="font-size:18px;font-weight:normal;fill:#2b2828;font-family:Arial"
   id="text251"
   y="192"
   x="400">D</text>












  </g></g><g
     id="g5959"><path
       inkscape:connector-curvature="0"
       style="fill:#8ae234;stroke:#202326;stroke-width:0"
       id="path71"
       d="m 192,147 19,0 c 2,0 3,1 3,2 l 0,19 c 0,1 -1,2 -3,2 l -19,0 c -2,0 -3,-1 -3,-2 l 0,-19 c 0,-1 1,-2 3,-2 z" /><g
       id="g253"
       transform="matrix(0.774557,0,0,0.77345,-112.39,15.3789)">
   <text
   style="font-size:18px;font-weight:normal;fill:#2b2828;font-family:Arial"
   id="text255"
   y="192"
   x="400">F</text>












  </g></g><g
     id="g5964"><path
       inkscape:connector-curvature="0"
       style="fill:#8ae234;stroke:#202326;stroke-width:0"
       id="path73"
       d="m 221,147 20,0 c 2,0 3,1 3,2 l 0,19 c 0,1 -1,2 -3,2 l -20,0 c -2,0 -3,-1 -3,-2 l 0,-19 c 0,-1 1,-2 3,-2 z" /><g
       id="g257"
       transform="matrix(0.774557,0,0,0.77345,-83.6883,15.3789)">
   <text
   style="font-size:18px;font-weight:normal;fill:#2b2828;font-family:Arial"
   id="text259"
   y="192"
   x="400">G</text>












  </g></g><g
     id="g5969"><path
       inkscape:connector-curvature="0"
       style="fill:#8ae234;stroke:#202326;stroke-width:0"
       id="path75"
       d="m 251,147 20,0 c 2,0 3,1 3,2 l 0,19 c 0,1 -1,2 -3,2 l -20,0 c -1,0 -3,-1 -3,-2 l 0,-19 c 0,-1 2,-2 3,-2 z" /><g
       id="g261"
       transform="matrix(0.774557,0,0,0.77345,-53.9965,15.3789)">
   <text
   style="font-size:18px;font-weight:normal;fill:#2b2828;font-family:Arial"
   id="text263"
   y="192"
   x="400">H</text>












  </g></g><g
     id="g5974"><path
       inkscape:connector-curvature="0"
       style="fill:#8ae234;stroke:#202326;stroke-width:0"
       id="path77"
       d="m 281,147 19,0 c 2,0 3,1 3,2 l 0,19 c 0,1 -1,2 -3,2 l -19,0 c -1,0 -3,-1 -3,-2 l 0,-19 c 0,-1 2,-2 3,-2 z" /><g
       id="g265"
       transform="matrix(0.774557,0,0,0.77345,-22.3252,15.3789)">
   <text
   style="font-size:18px;font-weight:normal;fill:#2b2828;font-family:Arial"
   id="text267"
   y="192"
   x="400">J</text>












  </g></g><g
     id="g5979"><path
       inkscape:connector-curvature="0"
       style="fill:#8ae234;stroke:#202326;stroke-width:0"
       id="path79"
       d="m 310,147 20,0 c 2,0 3,1 3,2 l 0,19 c 0,1 -1,2 -3,2 l -20,0 c -1,0 -3,-1 -3,-2 l 0,-19 c 0,-1 2,-2 3,-2 z" /><g
       id="g269"
       transform="matrix(0.774557,0,0,0.77345,5.38717,15.3789)">
   <text
   style="font-size:18px;font-weight:normal;fill:#2b2828;font-family:Arial"
   id="text271"
   y="192"
   x="400">K</text>












  </g></g><g
     id="g5984"><path
       inkscape:connector-curvature="0"
       style="fill:#8ae234;stroke:#202326;stroke-width:0"
       id="path81"
       d="m 340,147 20,0 c 2,0 3,1 3,2 l 0,19 c 0,1 -1,2 -3,2 l -20,0 c -1,0 -3,-1 -3,-2 l 0,-19 c 0,-1 2,-2 3,-2 z" /><g
       id="g273"
       transform="matrix(0.774557,0,0,0.77345,36.0689,15.3789)">
   <text
   style="font-size:18px;font-weight:normal;fill:#2b2828;font-family:Arial"
   id="text275"
   y="192"
   x="400">L</text>












  </g></g><g
     id="g5996"><path
       inkscape:connector-curvature="0"
       style="fill:#729fcf;stroke:#202326;stroke-width:0"
       id="path87"
       d="m 113,172 21,0 c 1,0 2,2 2,3 l 0,17 c 0,2 -1,3 -2,3 l -21,0 c -1,0 -2,-1 -2,-3 l 0,-17 c 0,-1 1,-3 2,-3 z" /><g
       id="g277"
       transform="matrix(0.774557,0,0,0.77345,-190.579,40.0868)">
   <text
   style="font-size:18px;font-weight:normal;fill:#2b2828;font-family:Arial"
   id="text279"
   y="192"
   x="400">Z</text>












  </g></g><g
     id="g6001"><path
       inkscape:connector-curvature="0"
       style="fill:#729fcf;stroke:#202326;stroke-width:0"
       id="path89"
       d="m 143,172 21,0 c 1,0 2,2 2,3 l 0,17 c 0,2 -1,3 -2,3 l -21,0 c -1,0 -2,-1 -2,-3 l 0,-17 c 0,-1 1,-3 2,-3 z" /><g
       id="g281"
       transform="matrix(0.774557,0,0,0.77345,-160.887,40.0868)">
   <text
   style="font-size:18px;font-weight:normal;fill:#2b2828;font-family:Arial"
   id="text283"
   y="192"
   x="400">X</text>












  </g></g><g
     id="g6006"><path
       inkscape:connector-curvature="0"
       style="fill:#729fcf;stroke:#202326;stroke-width:0"
       id="path91"
       d="m 173,172 21,0 c 1,0 2,2 2,3 l 0,17 c 0,2 -1,3 -2,3 l -21,0 c -1,0 -2,-1 -2,-3 l 0,-17 c 0,-1 1,-3 2,-3 z" /><g
       id="g285"
       transform="matrix(0.774557,0,0,0.77345,-131.195,40.0868)">
   <text
   style="font-size:18px;font-weight:normal;fill:#2b2828;font-family:Arial"
   id="text287"
   y="192"
   x="400">C</text>












  </g></g><g
     id="g6011"><path
       inkscape:connector-curvature="0"
       style="fill:#729fcf;stroke:#202326;stroke-width:0"
       id="path195"
       d="m 202,172 21,0 c 1,0 2,2 2,3 l 0,17 c 0,2 -1,3 -2,3 l -21,0 c 0,0 -1,-1 -1,-3 l 0,-17 c 0,-1 1,-3 1,-3 z" /><g
       id="g289"
       transform="matrix(0.774557,0,0,0.77345,-101.504,40.0868)">
   <text
   style="font-size:18px;font-weight:normal;fill:#2b2828;font-family:Arial"
   id="text291"
   y="192"
   x="400">V</text>












  </g></g><g
     id="g6016"><path
       inkscape:connector-curvature="0"
       style="fill:#729fcf;stroke:#202326;stroke-width:0"
       id="path93"
       d="m 233,172 20,0 c 1,0 2,2 2,3 l 0,17 c 0,2 -1,3 -2,3 l -20,0 c -2,0 -3,-1 -3,-3 l 0,-17 c 0,-1 1,-3 3,-3 z" /><g
       id="g293"
       transform="matrix(0.774557,0,0,0.77345,-71.8117,40.0868)">
   <text
   style="font-size:18px;font-weight:normal;fill:#2b2828;font-family:Arial"
   id="text295"
   y="192"
   x="400">B</text>












  </g></g><g
     id="g6021"><path
       inkscape:connector-curvature="0"
       style="fill:#729fcf;stroke:#202326;stroke-width:0"
       id="path95"
       d="m 263,172 20,0 c 1,0 2,2 2,3 l 0,17 c 0,2 -1,3 -2,3 l -20,0 c -2,0 -3,-1 -3,-3 l 0,-17 c 0,-1 1,-3 3,-3 z" /><g
       id="g297"
       transform="matrix(0.774557,0,0,0.77345,-42.1195,40.0868)">
   <text
   style="font-size:18px;font-weight:normal;fill:#2b2828;font-family:Arial"
   id="text299"
   y="192"
   x="400">N</text>












  </g></g><g
     id="g6026"><path
       inkscape:connector-curvature="0"
       style="fill:#729fcf;stroke:#202326;stroke-width:0"
       id="path97"
       d="m 293,172 19,0 c 1,0 2,2 2,3 l 0,17 c 0,2 -1,3 -2,3 l -19,0 c -2,0 -3,-1 -3,-3 l 0,-17 c 0,-1 1,-3 3,-3 z" /><g
       id="g301"
       transform="matrix(0.774557,0,0,0.77345,-13.4176,40.0868)">
   <text
   style="font-size:18px;font-weight:normal;fill:#2b2828;font-family:Arial"
   id="text303"
   y="192"
   x="400">M</text>












  </g></g><g
     id="g5989"><path
       inkscape:connector-curvature="0"
       style="fill:#8ae234;stroke:#202326;stroke-width:0"
       id="path83"
       d="m 370,147 20,0 c 2,0 3,1 3,2 l 0,19 c 0,1 -1,2 -3,2 l -20,0 c -1,0 -3,-1 -3,-2 l 0,-19 c 0,-1 2,-2 3,-2 z" /><g
       id="g693"
       transform="matrix(0.774557,0,0,0.77345,59.8224,18.3438)">
   <text
   style="font-size:12px;font-weight:normal;fill:#2b2828;font-family:Arial"
   id="text695"
   y="192"
   x="400">;</text>












  </g><g
       id="g697"
       transform="matrix(0.774557,0,0,0.77345,59.8224,5.49565)">
   <text
   style="font-size:12px;font-weight:normal;fill:#2b2828;font-family:Arial"
   id="text699"
   y="192"
   x="400">:</text>












  </g></g></g>
</svg>