<?xml version="1.0" encoding="UTF-8" standalone="no"?>
<!-- Created with Inkscape (http://www.inkscape.org/) -->

<svg
   xmlns:dc="http://purl.org/dc/elements/1.1/"
   xmlns:cc="http://creativecommons.org/ns#"
   xmlns:rdf="http://www.w3.org/1999/02/22-rdf-syntax-ns#"
   xmlns:svg="http://www.w3.org/2000/svg"
   xmlns="http://www.w3.org/2000/svg"
   xmlns:sodipodi="http://sodipodi.sourceforge.net/DTD/sodipodi-0.dtd"
   xmlns:inkscape="http://www.inkscape.org/namespaces/inkscape"
   version="1.1"
   width="480"
   height="160"
   viewBox="0 0 480.60075 159.58442"
   id="svg2"
   xml:space="preserve"
   style="fill-rule:evenodd"
   inkscape:version="0.48.2 r9819"
   sodipodi:docname="qwerty3.svg"><sodipodi:namedview
   pagecolor="#ffffff"
   bordercolor="#666666"
   borderopacity="1"
   objecttolerance="10"
   gridtolerance="10"
   guidetolerance="10"
   inkscape:pageopacity="0"
   inkscape:pageshadow="2"
   inkscape:window-width="1366"
   inkscape:window-height="746"
   id="namedview484"
   showgrid="false"
   inkscape:zoom="2.0145833"
   inkscape:cx="240"
   inkscape:cy="80"
   inkscape:window-x="-8"
   inkscape:window-y="-8"
   inkscape:window-maximized="1"
   inkscape:current-layer="g3896" /><metadata
   id="metadata872"><rdf:RDF><cc:Work
       rdf:about=""><dc:format>image/svg+xml</dc:format><dc:type
         rdf:resource="http://purl.org/dc/dcmitype/StillImage" /><dc:title /></cc:Work></rdf:RDF></metadata>
 <defs
   id="defs4"><marker
   refX="0"
   refY="0"
   orient="auto"
   id="TriangleOutM"
   style="overflow:visible"><path
     d="m 5.77,0 -8.65,5 0,-10 8.65,5 z"
     transform="scale(0.4,0.4)"
     id="path4359"
     style="fill-rule:evenodd;stroke:#000000;stroke-width:1pt;marker-start:none"
     inkscape:connector-curvature="0" /></marker><marker
   refX="0"
   refY="0"
   orient="auto"
   id="TriangleOutS"
   style="overflow:visible"><path
     d="m 5.77,0 -8.65,5 0,-10 8.65,5 z"
     transform="scale(0.2,0.2)"
     id="path4362"
     style="fill-rule:evenodd;stroke:#000000;stroke-width:1pt;marker-start:none"
     inkscape:connector-curvature="0" /></marker><marker
   refX="0"
   refY="0"
   orient="auto"
   id="TriangleOutL"
   style="overflow:visible"><path
     d="m 5.77,0 -8.65,5 0,-10 8.65,5 z"
     transform="scale(0.8,0.8)"
     id="path4356"
     style="fill-rule:evenodd;stroke:#000000;stroke-width:1pt;marker-start:none"
     inkscape:connector-curvature="0" /></marker><marker
   refX="0"
   refY="0"
   orient="auto"
   id="Arrow1Lend"
   style="overflow:visible"><path
     d="M 0,0 5,-5 -12.5,0 5,5 0,0 z"
     transform="matrix(-0.8,0,0,-0.8,-10,0)"
     id="path4216"
     style="fill-rule:evenodd;stroke:#000000;stroke-width:1pt;marker-start:none"
     inkscape:connector-curvature="0" /></marker><marker
   refX="0"
   refY="0"
   orient="auto"
   id="Arrow2Lend"
   style="overflow:visible"><path
     d="M 8.7185878,4.0337352 -2.2072895,0.01601326 8.7185884,-4.0017078 c -1.7454984,2.3720609 -1.7354408,5.6174519 -6e-7,8.035443 z"
     transform="matrix(-1.1,0,0,-1.1,-1.1,0)"
     id="path4234"
     style="font-size:12px;fill-rule:evenodd;stroke-width:0.625;stroke-linejoin:round"
     inkscape:connector-curvature="0" /></marker><marker
   refX="0"
   refY="0"
   orient="auto"
   id="Arrow2Lstart"
   style="overflow:visible"><path
     d="M 8.7185878,4.0337352 -2.2072895,0.01601326 8.7185884,-4.0017078 c -1.7454984,2.3720609 -1.7354408,5.6174519 -6e-7,8.035443 z"
     transform="matrix(1.1,0,0,1.1,1.1,0)"
     id="path4231"
     style="font-size:12px;fill-rule:evenodd;stroke-width:0.625;stroke-linejoin:round"
     inkscape:connector-curvature="0" /></marker>
  <style
   type="text/css"
   id="style6" />
 <marker
   refX="0"
   refY="0"
   orient="auto"
   id="TriangleOutSU"
   style="overflow:visible"><path
     d="m 5.77,0 -8.65,5 0,-10 8.65,5 z"
     transform="scale(0.2,0.2)"
     id="path5625"
     style="fill:#2b2828;fill-rule:evenodd;stroke:#2b2828;stroke-width:1pt;marker-start:none"
     inkscape:connector-curvature="0" /></marker><marker
   refX="0"
   refY="0"
   orient="auto"
   id="TriangleOutSU-2"
   style="overflow:visible"><path
     d="m 5.77,0 -8.65,5 0,-10 8.65,5 z"
     transform="scale(0.2,0.2)"
     id="path5625-2"
     style="fill:#2b2828;fill-rule:evenodd;stroke:#2b2828;stroke-width:1pt;marker-start:none"
     inkscape:connector-curvature="0" /></marker><marker
   refX="0"
   refY="0"
   orient="auto"
   id="TriangleOutSI"
   style="overflow:visible"><path
     d="m 5.77,0 -8.65,5 0,-10 8.65,5 z"
     transform="scale(0.2,0.2)"
     id="path6762"
     style="fill:#2b2828;fill-rule:evenodd;stroke:#2b2828;stroke-width:1pt;marker-start:none"
     inkscape:connector-curvature="0" /></marker><marker
   refX="0"
   refY="0"
   orient="auto"
   id="TriangleOutMu"
   style="overflow:visible"><path
     d="m 5.77,0 -8.65,5 0,-10 8.65,5 z"
     transform="scale(0.4,0.4)"
     id="path10716"
     style="fill:#2b2828;fill-rule:evenodd;stroke:#2b2828;stroke-width:1pt;marker-start:none"
     inkscape:connector-curvature="0" /></marker><marker
   refX="0"
   refY="0"
   orient="auto"
   id="TriangleOutMY"
   style="overflow:visible"><path
     d="m 5.77,0 -8.65,5 0,-10 8.65,5 z"
     transform="scale(0.4,0.4)"
     id="path10719"
     style="fill:#2b2828;fill-rule:evenodd;stroke:#2b2828;stroke-width:1pt;marker-start:none"
     inkscape:connector-curvature="0" /></marker><marker
   refX="0"
   refY="0"
   orient="auto"
   id="TriangleOutM1"
   style="overflow:visible"><path
     d="m 5.77,0 -8.65,5 0,-10 8.65,5 z"
     transform="scale(0.4,0.4)"
     id="path11856"
     style="fill:#2b2828;fill-rule:evenodd;stroke:#2b2828;stroke-width:1pt;marker-start:none"
     inkscape:connector-curvature="0" /></marker><marker
   refX="0"
   refY="0"
   orient="auto"
   id="TriangleOutM1-2"
   style="overflow:visible"><path
     d="m 5.77,0 -8.65,5 0,-10 8.65,5 z"
     transform="scale(0.4,0.4)"
     id="path11856-5"
     style="fill:#2b2828;fill-rule:evenodd;stroke:#2b2828;stroke-width:1pt;marker-start:none"
     inkscape:connector-curvature="0" /></marker><marker
   refX="0"
   refY="0"
   orient="auto"
   id="TriangleOutM1-6"
   style="overflow:visible"><path
     d="m 5.77,0 -8.65,5 0,-10 8.65,5 z"
     transform="scale(0.4,0.4)"
     id="path11856-54"
     style="fill:#2b2828;fill-rule:evenodd;stroke:#2b2828;stroke-width:1pt;marker-start:none"
     inkscape:connector-curvature="0" /></marker><marker
   refX="0"
   refY="0"
   orient="auto"
   id="TriangleOutM1-4"
   style="overflow:visible"><path
     d="m 5.77,0 -8.65,5 0,-10 8.65,5 z"
     transform="scale(0.4,0.4)"
     id="path11856-9"
     style="fill:#2b2828;fill-rule:evenodd;stroke:#2b2828;stroke-width:1pt;marker-start:none"
     inkscape:connector-curvature="0" /></marker><marker
   refX="0"
   refY="0"
   orient="auto"
   id="TriangleOutM1-1"
   style="overflow:visible"><path
     d="m 5.77,0 -8.65,5 0,-10 8.65,5 z"
     transform="scale(0.4,0.4)"
     id="path11856-97"
     style="fill:#2b2828;fill-rule:evenodd;stroke:#2b2828;stroke-width:1pt;marker-start:none"
     inkscape:connector-curvature="0" /></marker><marker
   refX="0"
   refY="0"
   orient="auto"
   id="TriangleOutM1-64"
   style="overflow:visible"><path
     d="m 5.77,0 -8.65,5 0,-10 8.65,5 z"
     transform="scale(0.4,0.4)"
     id="path11856-3"
     style="fill:#2b2828;fill-rule:evenodd;stroke:#2b2828;stroke-width:1pt;marker-start:none"
     inkscape:connector-curvature="0" /></marker><marker
   refX="0"
   refY="0"
   orient="auto"
   id="TriangleOutM1-5"
   style="overflow:visible"><path
     d="m 5.77,0 -8.65,5 0,-10 8.65,5 z"
     transform="scale(0.4,0.4)"
     id="path11856-55"
     style="fill:#2b2828;fill-rule:evenodd;stroke:#2b2828;stroke-width:1pt;marker-start:none"
     inkscape:connector-curvature="0" /></marker><marker
   refX="0"
   refY="0"
   orient="auto"
   id="TriangleOutM1-9"
   style="overflow:visible"><path
     d="m 5.77,0 -8.65,5 0,-10 8.65,5 z"
     transform="scale(0.4,0.4)"
     id="path11856-0"
     style="fill:#2b2828;fill-rule:evenodd;stroke:#2b2828;stroke-width:1pt;marker-start:none"
     inkscape:connector-curvature="0" /></marker><marker
   refX="0"
   refY="0"
   orient="auto"
   id="TriangleOutM1-17"
   style="overflow:visible"><path
     d="m 5.77,0 -8.65,5 0,-10 8.65,5 z"
     transform="scale(0.4,0.4)"
     id="path11856-4"
     style="fill:#2b2828;fill-rule:evenodd;stroke:#2b2828;stroke-width:1pt;marker-start:none"
     inkscape:connector-curvature="0" /></marker><marker
   refX="0"
   refY="0"
   orient="auto"
   id="TriangleOutMF"
   style="overflow:visible"><path
     d="m 5.77,0 -8.65,5 0,-10 8.65,5 z"
     transform="scale(0.4,0.4)"
     id="path3528"
     style="fill:#2b2828;fill-rule:evenodd;stroke:#2b2828;stroke-width:1pt;marker-start:none"
     inkscape:connector-curvature="0" /></marker>
  
  
  
  
  
  
  
  
  
  
  
  
  
  
  
  
  
  
  
  
  
  
  
  
  
  
  
  
  
  
  
  
  
  
  
  
  
  
  
  
  
  
  
  
  
  
  
  
  
  
  
  
  
  
  
  
  
  
  
  
  
  
  
  
  
  
  
  
  
  
  
  
  
  
  
  
  
  
  
  
  
  
  
  
  
  
  
  
  
  
  
  
  
  
  
  
  
  
  
  
  
  
  
  
  
  
  
  
  
  
  
  
  
  
  
  
  
  
  
  
  
  
  
  
  
  
  
  
  
  
  
  
  
  
  
  
  
  
  
  
  
  
  
  
  
  
  
  
  
  
  
  
  
  
  
  
  
  
  
  
  
  
  
  
  
  
  
  
  
  
  
  
  
  
  
  
  
  
  
  
  
  
  
  
  
  
  
  
  
  
  
  
  
  
  
  
  
  
  
  
  
  
  
  
  
  
  
  
  
  
  
  
  
  
  
  
  
  
  
  
  
  
  
  
  
  
  
  
  
  
  
  
  
  
  
  
  
  
  
  
  
  
  
  
  
  
  
  
  
  
  
  
  
  
  
  
  
  
  
  
  
  
  
  
  
  
  
  
  
  
  
  
  
  
  
  
  
  
  
  
  
  
  
  
  
  
  
  
 </defs>
 <g
   id="g4125"
   transform="translate(-25.972437,145.97167)"><path
     d="m 43.777832,-141.27332 446.214128,0 c 7.95718,0 14.0781,5.70333 14.0781,13.94147 l 0,121.6710784 c 0,7.60444 -6.12092,14.57518 -14.0781,14.57518 l -446.214128,0 c -8.56927,0 -15.302268,-6.97074 -15.302268,-14.57518 l 0,-121.6710784 c 0,-8.23814 6.732998,-13.94147 15.302268,-13.94147 z"
     id="path9"
     style="fill:#f5f6f7;stroke:#202326;stroke-width:0"
     inkscape:connector-curvature="0" /><g
     transform="translate(1.272812,-224.67946)"
     id="g3896"><path
       inkscape:connector-curvature="0"
       style="fill:#97c5d5;stroke:#202326;stroke-width:0"
       id="path11"
       d="m 47,96 20,0 c 1,0 3,1 3,3 l 0,17 c 0,2 -2,3 -3,3 l -20,0 c -2,0 -3,-1 -3,-3 l 0,-17 c 0,-2 1,-3 3,-3 z" /><path
       inkscape:connector-curvature="0"
       style="fill:#97c5d5;stroke:#202326;stroke-width:0"
       id="path13"
       d="m 77,96 20,0 c 2,0 3,1 3,3 l 0,17 c 0,2 -1,3 -3,3 l -20,0 c -2,0 -3,-1 -3,-3 l 0,-17 c 0,-2 1,-3 3,-3 z" /><path
       inkscape:connector-curvature="0"
       style="fill:#fce94f;stroke:#202326;stroke-width:0"
       id="path15"
       d="m 106,96 20,0 c 2,0 3,1 3,3 l 0,17 c 0,2 -1,3 -3,3 l -20,0 c -1,0 -2,-1 -2,-3 l 0,-17 c 0,-2 1,-3 2,-3 z" /><path
       inkscape:connector-curvature="0"
       style="fill:#8ae234;stroke:#202326;stroke-width:0"
       id="path17"
       d="m 136,96 20,0 c 2,0 3,1 3,3 l 0,17 c 0,2 -1,3 -3,3 l -20,0 c -2,0 -3,-1 -3,-3 l 0,-17 c 0,-2 1,-3 3,-3 z" /><path
       inkscape:connector-curvature="0"
       style="fill:#fcaf3e;stroke:#202326;stroke-width:0"
       id="path19"
       d="m 166,96 20,0 c 2,0 3,1 3,3 l 0,17 c 0,2 -1,3 -3,3 l -20,0 c -1,0 -3,-1 -3,-3 l 0,-17 c 0,-2 2,-3 3,-3 z" /><path
       inkscape:connector-curvature="0"
       style="fill:#ad7fa8;stroke:#202326;stroke-width:0"
       id="path21"
       d="m 196,96 19,0 c 2,0 3,1 3,3 l 0,17 c 0,2 -1,3 -3,3 l -19,0 c -1,0 -3,-1 -3,-3 l 0,-17 c 0,-2 2,-3 3,-3 z" /><path
       inkscape:connector-curvature="0"
       style="fill:#ad7fa8;stroke:#202326;stroke-width:0"
       id="path23"
       d="m 225,96 20,0 c 2,0 3,1 3,3 l 0,17 c 0,2 -1,3 -3,3 l -20,0 c -1,0 -3,-1 -3,-3 l 0,-17 c 0,-2 2,-3 3,-3 z" /><path
       inkscape:connector-curvature="0"
       style="fill:#fcaf3e;stroke:#202326;stroke-width:0"
       id="path25"
       d="m 255,96 20,0 c 2,0 3,1 3,3 l 0,17 c 0,2 -1,3 -3,3 l -20,0 c -1,0 -3,-1 -3,-3 l 0,-17 c 0,-2 2,-3 3,-3 z" /><path
       inkscape:connector-curvature="0"
       style="fill:#8ae234;stroke:#202326;stroke-width:0"
       id="path27"
       d="m 285,96 19,0 c 2,0 3,1 3,3 l 0,17 c 0,2 -1,3 -3,3 l -19,0 c -1,0 -3,-1 -3,-3 l 0,-17 c 0,-2 2,-3 3,-3 z" /><path
       inkscape:connector-curvature="0"
       style="fill:#fce94f;stroke:#202326;stroke-width:0"
       id="path29"
       d="m 314,96 20,0 c 2,0 3,1 3,3 l 0,17 c 0,2 -1,3 -3,3 l -20,0 c -1,0 -3,-1 -3,-3 l 0,-17 c 0,-2 2,-3 3,-3 z" /><path
       inkscape:connector-curvature="0"
       style="fill:#97c5d5;stroke:#202326;stroke-width:0"
       id="path31"
       d="m 344,96 20,0 c 2,0 3,1 3,3 l 0,17 c 0,2 -1,3 -3,3 l -20,0 c -1,0 -3,-1 -3,-3 l 0,-17 c 0,-2 2,-3 3,-3 z" /><path
       inkscape:connector-curvature="0"
       style="fill:#97c5d5;stroke:#202326;stroke-width:0"
       id="path33"
       d="m 374,96 20,0 c 1,0 2,1 2,3 l 0,17 c 0,2 -1,3 -2,3 l -20,0 c -1,0 -3,-1 -3,-3 l 0,-17 c 0,-2 2,-3 3,-3 z" /><path
       inkscape:connector-curvature="0"
       style="fill:#97c5d5;stroke:#202326;stroke-width:0"
       id="path35"
       d="m 403,96 20,0 c 2,0 3,1 3,3 l 0,17 c 0,2 -1,3 -3,3 l -20,0 c -1,0 -2,-1 -2,-3 l 0,-17 c 0,-2 1,-3 2,-3 z" /><path
       inkscape:connector-curvature="0"
       style="fill:#97c5d5;stroke:#202326;stroke-width:0"
       id="path37"
       d="m 433,96 20,0 c 2,0 3,1 3,3 l 0,17 c 0,2 -1,3 -3,3 l -20,0 c -1,0 -2,-1 -2,-3 l 0,-17 c 0,-2 1,-3 2,-3 z" /><path
       inkscape:connector-curvature="0"
       style="fill:#97c5d5;stroke:#202326;stroke-width:0"
       id="path39"
       d="m 463,96 20,0 c 2,0 3,1 3,3 l 0,17 c 0,2 -1,3 -3,3 l -20,0 c -1,0 -2,-1 -2,-3 l 0,-17 c 0,-2 1,-3 2,-3 z" /><path
       inkscape:connector-curvature="0"
       style="fill:#97c5d5;stroke:#202326;stroke-width:0"
       id="path41"
       d="m 95,121 19,0 c 2,0 3,1 3,3 l 0,18 c 0,1 -1,3 -3,3 l -19,0 c -1,0 -3,-2 -3,-3 l 0,-18 c 0,-2 2,-3 3,-3 z" /><path
       inkscape:connector-curvature="0"
       style="fill:#fce94f;stroke:#202326;stroke-width:0"
       id="path43"
       d="m 124,121 20,0 c 2,0 3,1 3,3 l 0,18 c 0,1 -1,3 -3,3 l -20,0 c -1,0 -3,-2 -3,-3 l 0,-18 c 0,-2 2,-3 3,-3 z" /><path
       inkscape:connector-curvature="0"
       style="fill:#8ae234;stroke:#202326;stroke-width:0"
       id="path45"
       d="m 154,121 20,0 c 2,0 3,1 3,3 l 0,18 c 0,1 -1,3 -3,3 l -20,0 c -1,0 -3,-2 -3,-3 l 0,-18 c 0,-2 2,-3 3,-3 z" /><path
       inkscape:connector-curvature="0"
       style="fill:#fcaf3e;stroke:#202326;stroke-width:0"
       id="path47"
       d="m 184,121 19,0 c 2,0 3,1 3,3 l 0,18 c 0,1 -1,3 -3,3 l -19,0 c -1,0 -3,-2 -3,-3 l 0,-18 c 0,-2 2,-3 3,-3 z" /><path
       inkscape:connector-curvature="0"
       style="fill:#ad7fa8;stroke:#202326;stroke-width:0"
       id="path49"
       d="m 213,121 20,0 c 2,0 3,1 3,3 l 0,18 c 0,1 -1,3 -3,3 l -20,0 c -1,0 -2,-2 -2,-3 l 0,-18 c 0,-2 1,-3 2,-3 z" /><path
       inkscape:connector-curvature="0"
       style="fill:#ad7fa8;stroke:#202326;stroke-width:0"
       id="path51"
       d="m 243,121 20,0 c 2,0 3,1 3,3 l 0,18 c 0,1 -1,3 -3,3 l -20,0 c -1,0 -2,-2 -2,-3 l 0,-18 c 0,-2 1,-3 2,-3 z" /><path
       inkscape:connector-curvature="0"
       style="fill:#fcaf3e;stroke:#202326;stroke-width:0"
       id="path53"
       d="m 273,121 20,0 c 2,0 3,1 3,3 l 0,18 c 0,1 -1,3 -3,3 l -20,0 c -1,0 -2,-2 -2,-3 l 0,-18 c 0,-2 1,-3 2,-3 z" /><path
       inkscape:connector-curvature="0"
       style="fill:#8ae234;stroke:#202326;stroke-width:0"
       id="path55"
       d="m 302,121 20,0 c 2,0 3,1 3,3 l 0,18 c 0,1 -1,3 -3,3 l -20,0 c -1,0 -2,-2 -2,-3 l 0,-18 c 0,-2 1,-3 2,-3 z" /><path
       inkscape:connector-curvature="0"
       style="fill:#fce94f;stroke:#202326;stroke-width:0"
       id="path57"
       d="m 332,121 20,0 c 2,0 3,1 3,3 l 0,18 c 0,1 -1,3 -3,3 l -20,0 c -1,0 -2,-2 -2,-3 l 0,-18 c 0,-2 1,-3 2,-3 z" /><path
       inkscape:connector-curvature="0"
       style="fill:#97c5d5;stroke:#202326;stroke-width:0"
       id="path59"
       d="m 362,121 20,0 c 2,0 3,1 3,3 l 0,18 c 0,1 -1,3 -3,3 l -20,0 c -1,0 -2,-2 -2,-3 l 0,-18 c 0,-2 1,-3 2,-3 z" /><path
       inkscape:connector-curvature="0"
       style="fill:#97c5d5;stroke:#202326;stroke-width:0"
       id="path61"
       d="m 392,121 19,0 c 2,0 3,1 3,3 l 0,18 c 0,1 -1,3 -3,3 l -19,0 c -1,0 -2,-2 -2,-3 l 0,-18 c 0,-2 1,-3 2,-3 z" /><path
       inkscape:connector-curvature="0"
       style="fill:#97c5d5;stroke:#202326;stroke-width:0"
       id="path63"
       d="m 421,121 20,0 c 2,0 3,1 3,3 l 0,18 c 0,1 -1,3 -3,3 l -20,0 c -1,0 -2,-2 -2,-3 l 0,-18 c 0,-2 1,-3 2,-3 z" /><path
       inkscape:connector-curvature="0"
       style="fill:#97c5d5;stroke:#202326;stroke-width:0"
       id="path65"
       d="m 103,147 19,0 c 1,0 3,1 3,2 l 0,19 c 0,1 -2,2 -3,2 l -19,0 c -2,0 -3,-1 -3,-2 l 0,-19 c 0,-1 1,-2 3,-2 z" /><path
       inkscape:connector-curvature="0"
       style="fill:#fce94f;stroke:#202326;stroke-width:0"
       id="path67"
       d="m 132,147 20,0 c 1,0 3,1 3,2 l 0,19 c 0,1 -2,2 -3,2 l -20,0 c -2,0 -3,-1 -3,-2 l 0,-19 c 0,-1 1,-2 3,-2 z" /><path
       inkscape:connector-curvature="0"
       style="fill:#8ae234;stroke:#202326;stroke-width:0"
       id="path69"
       d="m 162,147 20,0 c 2,0 3,1 3,2 l 0,19 c 0,1 -1,2 -3,2 l -20,0 c -2,0 -3,-1 -3,-2 l 0,-19 c 0,-1 1,-2 3,-2 z" /><path
       inkscape:connector-curvature="0"
       style="fill:#fcaf3e;stroke:#202326;stroke-width:0"
       id="path71"
       d="m 192,147 19,0 c 2,0 3,1 3,2 l 0,19 c 0,1 -1,2 -3,2 l -19,0 c -2,0 -3,-1 -3,-2 l 0,-19 c 0,-1 1,-2 3,-2 z" /><path
       inkscape:connector-curvature="0"
       style="fill:#ad7fa8;stroke:#202326;stroke-width:0"
       id="path73"
       d="m 221,147 20,0 c 2,0 3,1 3,2 l 0,19 c 0,1 -1,2 -3,2 l -20,0 c -2,0 -3,-1 -3,-2 l 0,-19 c 0,-1 1,-2 3,-2 z" /><path
       inkscape:connector-curvature="0"
       style="fill:#ad7fa8;stroke:#202326;stroke-width:0"
       id="path75"
       d="m 251,147 20,0 c 2,0 3,1 3,2 l 0,19 c 0,1 -1,2 -3,2 l -20,0 c -1,0 -3,-1 -3,-2 l 0,-19 c 0,-1 2,-2 3,-2 z" /><path
       inkscape:connector-curvature="0"
       style="fill:#fcaf3e;stroke:#202326;stroke-width:0"
       id="path77"
       d="m 281,147 19,0 c 2,0 3,1 3,2 l 0,19 c 0,1 -1,2 -3,2 l -19,0 c -1,0 -3,-1 -3,-2 l 0,-19 c 0,-1 2,-2 3,-2 z" /><path
       inkscape:connector-curvature="0"
       style="fill:#8ae234;stroke:#202326;stroke-width:0"
       id="path79"
       d="m 310,147 20,0 c 2,0 3,1 3,2 l 0,19 c 0,1 -1,2 -3,2 l -20,0 c -1,0 -3,-1 -3,-2 l 0,-19 c 0,-1 2,-2 3,-2 z" /><path
       inkscape:connector-curvature="0"
       style="fill:#fce94f;stroke:#202326;stroke-width:0"
       id="path81"
       d="m 340,147 20,0 c 2,0 3,1 3,2 l 0,19 c 0,1 -1,2 -3,2 l -20,0 c -1,0 -3,-1 -3,-2 l 0,-19 c 0,-1 2,-2 3,-2 z" /><path
       inkscape:connector-curvature="0"
       style="fill:#97c5d5;stroke:#202326;stroke-width:0"
       id="path83"
       d="m 370,147 20,0 c 2,0 3,1 3,2 l 0,19 c 0,1 -1,2 -3,2 l -20,0 c -1,0 -3,-1 -3,-2 l 0,-19 c 0,-1 2,-2 3,-2 z" /><path
       inkscape:connector-curvature="0"
       style="fill:#97c5d5;stroke:#202326;stroke-width:0"
       id="path85"
       d="m 399,147 20,0 c 2,0 3,1 3,2 l 0,19 c 0,1 -1,2 -3,2 l -20,0 c -1,0 -3,-1 -3,-2 l 0,-19 c 0,-1 2,-2 3,-2 z" /><path
       inkscape:connector-curvature="0"
       style="fill:#97c5d5;stroke:#202326;stroke-width:0"
       id="path87"
       d="m 113,172 21,0 c 1,0 2,2 2,3 l 0,17 c 0,2 -1,3 -2,3 l -21,0 c -1,0 -2,-1 -2,-3 l 0,-17 c 0,-1 1,-3 2,-3 z" /><path
       inkscape:connector-curvature="0"
       style="fill:#fce94f;stroke:#202326;stroke-width:0"
       id="path89"
       d="m 143,172 21,0 c 1,0 2,2 2,3 l 0,17 c 0,2 -1,3 -2,3 l -21,0 c -1,0 -2,-1 -2,-3 l 0,-17 c 0,-1 1,-3 2,-3 z" /><path
       inkscape:connector-curvature="0"
       style="fill:#8ae234;stroke:#202326;stroke-width:0"
       id="path91"
       d="m 173,172 21,0 c 1,0 2,2 2,3 l 0,17 c 0,2 -1,3 -2,3 l -21,0 c -1,0 -2,-1 -2,-3 l 0,-17 c 0,-1 1,-3 2,-3 z" /><path
       inkscape:connector-curvature="0"
       style="fill:#ad7fa8;stroke:#202326;stroke-width:0"
       id="path93"
       d="m 233,172 20,0 c 1,0 2,2 2,3 l 0,17 c 0,2 -1,3 -2,3 l -20,0 c -2,0 -3,-1 -3,-3 l 0,-17 c 0,-1 1,-3 3,-3 z" /><path
       inkscape:connector-curvature="0"
       style="fill:#ad7fa8;stroke:#202326;stroke-width:0"
       id="path95"
       d="m 263,172 20,0 c 1,0 2,2 2,3 l 0,17 c 0,2 -1,3 -2,3 l -20,0 c -2,0 -3,-1 -3,-3 l 0,-17 c 0,-1 1,-3 3,-3 z" /><path
       inkscape:connector-curvature="0"
       style="fill:#fcaf3e;stroke:#202326;stroke-width:0"
       id="path97"
       d="m 293,172 19,0 c 1,0 2,2 2,3 l 0,17 c 0,2 -1,3 -2,3 l -19,0 c -2,0 -3,-1 -3,-3 l 0,-17 c 0,-1 1,-3 3,-3 z" /><path
       inkscape:connector-curvature="0"
       style="fill:#8ae234;stroke:#202326;stroke-width:0"
       id="path99"
       d="m 322,172 20,0 c 1,0 2,2 2,3 l 0,17 c 0,2 -1,3 -2,3 l -20,0 c -2,0 -3,-1 -3,-3 l 0,-17 c 0,-1 1,-3 3,-3 z" /><path
       inkscape:connector-curvature="0"
       style="fill:#fce94f;stroke:#202326;stroke-width:0"
       id="path101"
       d="m 352,172 20,0 c 1,0 2,2 2,3 l 0,17 c 0,2 -1,3 -2,3 l -20,0 c -2,0 -3,-1 -3,-3 l 0,-17 c 0,-1 1,-3 3,-3 z" /><path
       inkscape:connector-curvature="0"
       style="fill:#97c5d5;stroke:#202326;stroke-width:0"
       id="path103"
       d="m 382,172 19,0 c 1,0 2,2 2,3 l 0,17 c 0,2 -1,3 -2,3 l -19,0 c -2,0 -3,-1 -3,-3 l 0,-17 c 0,-1 1,-3 3,-3 z" /><path
       inkscape:connector-curvature="0"
       style="fill:#97c5d5;stroke:#202326;stroke-width:0"
       id="path185"
       d="m 162,197 -11,0 c -2,0 -3,1 -3,3 l 0,18 c 0,2 1,3 3,3 l 11,0 168,0 18,0 c 0,0 1,-1 1,-3 l 0,-18 c 0,-2 -1,-3 -1,-3 l -18,0 -168,0 z" /><path
       inkscape:connector-curvature="0"
       style="fill:#e8a8a5;stroke:#202326;stroke-width:0"
       id="path187"
       d="m 391,197 19,0 c 1,0 2,1 2,3 l 0,18 c 0,2 -1,3 -2,3 l -19,0 c -2,0 -3,-1 -3,-3 l 0,-18 c 0,-2 1,-3 3,-3 z" /><path
       inkscape:connector-curvature="0"
       style="fill:#a97ca9;stroke:#202326;stroke-width:0"
       id="path189"
       d="m 420,197 20,0 c 1,0 2,1 2,3 l 0,18 c 0,2 -1,3 -2,3 l -20,0 c -2,0 -3,-1 -3,-3 l 0,-18 c 0,-2 1,-3 3,-3 z" /><path
       inkscape:connector-curvature="0"
       style="fill:#fcaf3e;stroke:#202326;stroke-width:0"
       id="path195"
       d="m 202,172 21,0 c 1,0 2,2 2,3 l 0,17 c 0,2 -1,3 -2,3 l -21,0 c 0,0 -1,-1 -1,-3 l 0,-17 c 0,-1 1,-3 1,-3 z" /><path
       inkscape:connector-curvature="0"
       style="fill:#97c5d5;stroke:#202326;stroke-width:0"
       id="path197"
       d="m 47,145 c -2,0 -3,-2 -3,-3 l 0,-18 c 0,-2 1,-3 3,-3 l 38,0 c 2,0 3,1 3,3 l 0,18 c 0,1 -1,3 -3,3 l -38,0 z" /><path
       inkscape:connector-curvature="0"
       style="fill:#97c5d5;stroke:#202326;stroke-width:0"
       id="path199"
       d="m 47,170 c -1,0 -3,-1 -3,-2 l 0,-19 c 0,-1 2,-2 3,-2 l 45,0 c 2,0 4,1 4,2 l 0,19 c 0,1 -2,2 -4,2 l -45,0 z" /><g
       id="g201"
       transform="matrix(0.774557,0,0,0.77345,-210.373,-10.3173)">
   <text
   style="font-size:18px;font-weight:normal;fill:#2b2828;font-family:Arial"
   id="text203"
   y="192"
   x="400">Q</text>










  </g><g
       id="g205"
       transform="matrix(0.774557,0,0,0.77345,-182.661,-10.3173)">
   <text
   style="font-size:18px;font-weight:normal;fill:#2b2828;font-family:Arial"
   id="text207"
   y="192"
   x="400">W</text>










  </g><g
       id="g209"
       transform="matrix(0.774557,0,0,0.77345,-150,-10.3173)">
   <text
   style="font-size:18px;font-weight:normal;fill:#2b2828;font-family:Arial"
   id="text211"
   y="192"
   x="400">E</text>










  </g><g
       id="g213"
       transform="matrix(0.774557,0,0,0.77345,-121.298,-10.3173)">
   <text
   style="font-size:18px;font-weight:normal;fill:#2b2828;font-family:Arial"
   id="text215"
   y="192"
   x="400">R</text>










  </g><g
       id="g217"
       transform="matrix(0.774557,0,0,0.77345,-90.6165,-10.3173)">
   <text
   style="font-size:18px;font-weight:normal;fill:#2b2828;font-family:Arial"
   id="text219"
   y="192"
   x="400">T</text>










  </g><g
       id="g221"
       transform="matrix(0.774557,0,0,0.77345,-60.9247,-10.3173)">
   <text
   style="font-size:18px;font-weight:normal;fill:#2b2828;font-family:Arial"
   id="text223"
   y="192"
   x="400">Y</text>










  </g><g
       id="g225"
       transform="matrix(0.774557,0,0,0.77345,-31.2329,-10.3173)">
   <text
   style="font-size:18px;font-weight:normal;fill:#2b2828;font-family:Arial"
   id="text227"
   y="192"
   x="400">U</text>










  </g><g
       id="g229"
       transform="matrix(0.774557,0,0,0.77345,1.42831,-10.3173)">
   <text
   style="font-size:18px;font-weight:normal;fill:#2b2828;font-family:Arial"
   id="text231"
   y="192"
   x="400">I</text>










  </g><g
       id="g233"
       transform="matrix(0.774557,0,0,0.77345,27.1613,-10.3173)">
   <text
   style="font-size:18px;font-weight:normal;fill:#2b2828;font-family:Arial"
   id="text235"
   y="192"
   x="400">O</text>










  </g><g
       id="g237"
       transform="matrix(0.774557,0,0,0.77345,57.8426,-10.3173)">
   <text
   style="font-size:18px;font-weight:normal;fill:#2b2828;font-family:Arial"
   id="text239"
   y="192"
   x="400">P</text>










  </g><g
       id="g241"
       transform="matrix(0.774557,0,0,0.77345,-202.456,15.3789)">
   <text
   style="font-size:18px;font-weight:normal;fill:#2b2828;font-family:Arial"
   id="text243"
   y="192"
   x="400">A</text>










  </g><g
       id="g245"
       transform="matrix(0.774557,0,0,0.77345,-171.774,15.3789)">
   <text
   style="font-size:18px;font-weight:normal;fill:#2b2828;font-family:Arial"
   id="text247"
   y="192"
   x="400">S</text>










  </g><g
       id="g249"
       transform="matrix(0.774557,0,0,0.77345,-143.072,15.3789)">
   <text
   style="font-size:18px;font-weight:normal;fill:#2b2828;font-family:Arial"
   id="text251"
   y="192"
   x="400">D</text>










  </g><g
       id="g253"
       transform="matrix(0.774557,0,0,0.77345,-112.39,15.3789)">
   <text
   style="font-size:18px;font-weight:normal;fill:#2b2828;font-family:Arial"
   id="text255"
   y="192"
   x="400">F</text>










  </g><g
       id="g257"
       transform="matrix(0.774557,0,0,0.77345,-83.6883,15.3789)">
   <text
   style="font-size:18px;font-weight:normal;fill:#2b2828;font-family:Arial"
   id="text259"
   y="192"
   x="400">G</text>










  </g><g
       id="g261"
       transform="matrix(0.774557,0,0,0.77345,-53.9965,15.3789)">
   <text
   style="font-size:18px;font-weight:normal;fill:#2b2828;font-family:Arial"
   id="text263"
   y="192"
   x="400">H</text>










  </g><g
       id="g265"
       transform="matrix(0.774557,0,0,0.77345,-22.3252,15.3789)">
   <text
   style="font-size:18px;font-weight:normal;fill:#2b2828;font-family:Arial"
   id="text267"
   y="192"
   x="400">J</text>










  </g><g
       id="g269"
       transform="matrix(0.774557,0,0,0.77345,5.38717,15.3789)">
   <text
   style="font-size:18px;font-weight:normal;fill:#2b2828;font-family:Arial"
   id="text271"
   y="192"
   x="400">K</text>










  </g><g
       id="g273"
       transform="matrix(0.774557,0,0,0.77345,36.0689,15.3789)">
   <text
   style="font-size:18px;font-weight:normal;fill:#2b2828;font-family:Arial"
   id="text275"
   y="192"
   x="400">L</text>










  </g><g
       id="g277"
       transform="matrix(0.774557,0,0,0.77345,-190.579,40.0868)">
   <text
   style="font-size:18px;font-weight:normal;fill:#2b2828;font-family:Arial"
   id="text279"
   y="192"
   x="400">Z</text>










  </g><g
       id="g281"
       transform="matrix(0.774557,0,0,0.77345,-160.887,40.0868)">
   <text
   style="font-size:18px;font-weight:normal;fill:#2b2828;font-family:Arial"
   id="text283"
   y="192"
   x="400">X</text>










  </g><g
       id="g285"
       transform="matrix(0.774557,0,0,0.77345,-131.195,40.0868)">
   <text
   style="font-size:18px;font-weight:normal;fill:#2b2828;font-family:Arial"
   id="text287"
   y="192"
   x="400">C</text>










  </g><g
       id="g289"
       transform="matrix(0.774557,0,0,0.77345,-101.504,40.0868)">
   <text
   style="font-size:18px;font-weight:normal;fill:#2b2828;font-family:Arial"
   id="text291"
   y="192"
   x="400">V</text>










  </g><g
       id="g293"
       transform="matrix(0.774557,0,0,0.77345,-71.8117,40.0868)">
   <text
   style="font-size:18px;font-weight:normal;fill:#2b2828;font-family:Arial"
   id="text295"
   y="192"
   x="400">B</text>










  </g><g
       id="g297"
       transform="matrix(0.774557,0,0,0.77345,-42.1195,40.0868)">
   <text
   style="font-size:18px;font-weight:normal;fill:#2b2828;font-family:Arial"
   id="text299"
   y="192"
   x="400">N</text>










  </g><g
       id="g301"
       transform="matrix(0.774557,0,0,0.77345,-13.4176,40.0868)">
   <text
   style="font-size:18px;font-weight:normal;fill:#2b2828;font-family:Arial"
   id="text303"
   y="192"
   x="400">M</text>










  </g><g
       id="g507"
       transform="matrix(0.774557,0,0,0.77345,-233.137,-31.0719)">
   <text
   style="font-size:12px;font-weight:normal;fill:#2b2828;font-family:Arial"
   id="text509"
   y="192"
   x="400">1</text>










  </g><g
       id="g511"
       transform="matrix(0.774557,0,0,0.77345,-204.435,-31.0719)">
   <text
   style="font-size:12px;font-weight:normal;fill:#2b2828;font-family:Arial"
   id="text513"
   y="192"
   x="400">2</text>










  </g><g
       id="g515"
       transform="matrix(0.774557,0,0,0.77345,-174.743,-31.0719)">
   <text
   style="font-size:12px;font-weight:normal;fill:#2b2828;font-family:Arial"
   id="text517"
   y="192"
   x="400">3</text>










  </g><g
       id="g519"
       transform="matrix(0.774557,0,0,0.77345,-145.051,-31.0719)">
   <text
   style="font-size:12px;font-weight:normal;fill:#2b2828;font-family:Arial"
   id="text521"
   y="192"
   x="400">4</text>










  </g><g
       id="g523"
       transform="matrix(0.774557,0,0,0.77345,-114.37,-31.0719)">
   <text
   style="font-size:12px;font-weight:normal;fill:#2b2828;font-family:Arial"
   id="text525"
   y="192"
   x="400">5</text>










  </g><g
       id="g527"
       transform="matrix(0.774557,0,0,0.77345,-84.6778,-31.0719)">
   <text
   style="font-size:12px;font-weight:normal;fill:#2b2828;font-family:Arial"
   id="text529"
   y="192"
   x="400">6</text>










  </g><g
       id="g531"
       transform="matrix(0.774557,0,0,0.77345,-54.986,-31.0719)">
   <text
   style="font-size:12px;font-weight:normal;fill:#2b2828;font-family:Arial"
   id="text533"
   y="192"
   x="400">7</text>










  </g><g
       id="g535"
       transform="matrix(0.774557,0,0,0.77345,-26.2841,-31.0719)">
   <text
   style="font-size:12px;font-weight:normal;fill:#2b2828;font-family:Arial"
   id="text537"
   y="192"
   x="400">8</text>










  </g><g
       id="g539"
       transform="matrix(0.774557,0,0,0.77345,3.40774,-31.0719)">
   <text
   style="font-size:12px;font-weight:normal;fill:#2b2828;font-family:Arial"
   id="text541"
   y="192"
   x="400">9</text>










  </g><g
       id="g543"
       transform="matrix(0.774557,0,0,0.77345,34.0895,-31.0719)">
   <text
   style="font-size:12px;font-weight:normal;fill:#2b2828;font-family:Arial"
   id="text545"
   y="192"
   x="400">0</text>










  </g><path
       inkscape:connector-curvature="0"
       style="fill:none;stroke:#2b2828;stroke-width:0"
       id="path547"
       d="m 479,106 -11,0" /><path
       inkscape:connector-curvature="0"
       style="fill:#97c5d5;stroke:#202326;stroke-width:0"
       id="path551"
       d="m 410,195 c -1,0 -2,-1 -2,-3 l 0,-17 c 0,-1 1,-3 2,-3 l 73,0 c 2,0 3,2 3,3 l 0,17 c 0,2 -1,3 -3,3 l -73,0 z" /><path
       inkscape:connector-curvature="0"
       style="fill:#f1efbe;stroke:#202326;stroke-width:0"
       id="path553"
       d="m 446,147 -17,0 c -2,0 -3,1 -3,2 l 0,19 c 0,1 1,2 3,2 l 54,0 c 2,0 3,-1 3,-2 l 0,-44 c 0,-2 -1,-3 -3,-3 l -31,0 c -2,0 -3,1 -3,3 l 0,20 c 0,2 0,3 -3,3 l 0,0 z" /><path
       inkscape:connector-curvature="0"
       style="fill:none;stroke:#2b2828;stroke-width:0"
       id="path555"
       d="m 467,129 0,11 -10,0" /><path
       inkscape:connector-curvature="0"
       style="fill:#97c5d5;stroke:#202326;stroke-width:0"
       id="path559"
       d="m 450,197 33,0 c 2,0 3,1 3,3 l 0,18 c 0,2 -1,3 -3,3 l -33,0 c -2,0 -3,-1 -3,-3 l 0,-18 c 0,-2 1,-3 3,-3 z" /><path
       inkscape:connector-curvature="0"
       style="fill:#97c5d5;stroke:#202326;stroke-width:0"
       id="path561"
       d="m 47,195 c -1,0 -3,-1 -3,-3 0,-5 0,-11 0,-17 0,-1 2,-3 3,-3 15,0 41,0 57,0 1,0 2,2 2,3 0,6 0,12 0,17 0,2 -1,3 -2,3 -16,0 -42,0 -57,0 z" /><path
       inkscape:connector-curvature="0"
       style="fill:#97c5d5;stroke:#202326;stroke-width:0"
       id="path563"
       d="m 47,197 30,0 c 1,0 2,1 2,3 l 0,18 c 0,2 -1,3 -2,3 l -30,0 c -2,0 -3,-1 -3,-3 l 0,-18 c 0,-2 1,-3 3,-3 z" /><path
       inkscape:connector-curvature="0"
       style="fill:#e8a8a5;stroke:#202326;stroke-width:0"
       id="path565"
       d="m 87,197 19,0 c 2,0 3,1 3,3 l 0,18 c 0,1 -1,3 -3,3 l -19,0 c -1,0 -3,-2 -3,-3 l 0,-18 c 0,-2 2,-3 3,-3 z" /><path
       inkscape:connector-curvature="0"
       style="fill:#97c5d5;stroke:#202326;stroke-width:0"
       id="path567"
       d="m 116,197 25,0 c 1,0 2,1 2,3 l 0,18 c 0,1 -1,3 -2,3 l -25,0 c -1,0 -2,-2 -2,-3 l 0,-18 c 0,-2 1,-3 2,-3 z" /><g
       id="g569"
       transform="matrix(0.774557,0,0,0.77345,150.877,63.8059)">
   <text
   style="font-size:9px;font-weight:normal;fill:#2b2828;font-family:Arial"
   id="text571"
   y="192"
   x="400">Ctrl</text>










  </g><g
       id="g573"
       transform="matrix(0.774557,0,0,0.77345,-252.932,63.8059)">
   <text
   style="font-size:9px;font-weight:normal;fill:#2b2828;font-family:Arial"
   id="text575"
   y="192"
   x="400">Ctrl</text>










  </g><g
       id="g577"
       transform="matrix(0.774557,0,0,0.77345,-185.63,62.8175)">
   <text
   style="font-size:9px;font-weight:normal;fill:#2b2828;font-family:Arial"
   id="text579"
   y="192"
   x="400">Alt</text>










  </g><g
       id="g581"
       transform="matrix(0.774557,0,0,0.77345,3.40774,-45.8965)">
   <text
   style="font-size:12px;font-weight:normal;fill:#2b2828;font-family:Arial"
   id="text583"
   y="194"
   x="400">(</text>










  </g><g
       id="g585"
       transform="matrix(0.774557,0,0,0.77345,34.0895,-45.8965)">
   <text
   style="font-size:12px;font-weight:normal;fill:#2b2828;font-family:Arial"
   id="text587"
   y="194"
   x="400">)</text>










  </g><g
       id="g589"
       transform="matrix(0.774557,0,0,0.77345,-25.2942,-45.8965)">
   <text
   style="font-size:12px;font-weight:normal;fill:#2b2828;font-family:Arial"
   id="text591"
   y="194"
   x="400">*</text>










  </g><g
       id="g593"
       transform="matrix(0.774557,0,0,0.77345,-55.9759,-44.9081)">
   <text
   style="font-size:12px;font-weight:normal;fill:#2b2828;font-family:Arial"
   id="text595"
   y="192"
   x="400">&amp;</text>










  </g><g
       id="g597"
       transform="matrix(0.774557,0,0,0.77345,-84.6778,-44.9081)">
   <text
   style="font-size:12px;font-weight:normal;fill:#2b2828;font-family:Arial"
   id="text599"
   y="192"
   x="400">^</text>










  </g><g
       id="g601"
       transform="matrix(0.774557,0,0,0.77345,-115.36,-44.9081)">
   <text
   style="font-size:12px;font-weight:normal;fill:#2b2828;font-family:Arial"
   id="text603"
   y="192"
   x="400">%</text>










  </g><g
       id="g605"
       transform="matrix(0.774557,0,0,0.77345,-145.051,-44.9081)">
   <text
   style="font-size:12px;font-weight:normal;fill:#2b2828;font-family:Arial"
   id="text607"
   y="192"
   x="400">$</text>










  </g><g
       id="g609"
       transform="matrix(0.774557,0,0,0.77345,-174.743,-44.9081)">
   <text
   style="font-size:12px;font-weight:normal;fill:#2b2828;font-family:Arial"
   id="text611"
   y="192"
   x="400">#</text>










  </g><g
       id="g613"
       transform="matrix(0.774557,0,0,0.77345,-205.425,-44.9081)">
   <text
   style="font-size:12px;font-weight:normal;fill:#2b2828;font-family:Arial"
   id="text615"
   y="192"
   x="400">@</text>










  </g><g
       id="g617"
       transform="matrix(0.774557,0,0,0.77345,-233.137,-44.9081)">
   <text
   style="font-size:12px;font-weight:normal;fill:#2b2828;font-family:Arial"
   id="text619"
   y="192"
   x="400">!</text>










  </g><g
       id="g621"
       transform="matrix(0.774557,0,0,0.77345,-242.045,38.11)">
   <text
   style="font-size:9px;font-weight:normal;fill:#2b2828;font-family:Arial"
   id="text623"
   y="192"
   x="400">Shift</text>










  </g><path
       inkscape:connector-curvature="0"
       style="fill:none;stroke:#2b2828;stroke-width:0"
       id="path625"
       d="m 54,177 -4,4 2,0 0,8 5,0 0,-8 2,0 -5,-4 z" /><g
       id="g627"
       transform="matrix(0.774557,0,0,0.77345,130.092,38.11)">
   <text
   style="font-size:9px;font-weight:normal;fill:#2b2828;font-family:Arial"
   id="text629"
   y="192"
   x="400">Shift</text>










  </g><path
       inkscape:connector-curvature="0"
       style="fill:none;stroke:#2b2828;stroke-width:0"
       id="path631"
       d="m 417,177 -4,4 2,0 0,8 4,0 0,-8 2,0 -4,-4 z" /><g
       id="g633"
       transform="matrix(0.774557,0,0,0.77345,-262.829,-30.0835)">
   <text
   style="font-size:12px;font-weight:normal;fill:#2b2828;font-family:Arial"
   id="text635"
   y="192"
   x="400">`</text>










  </g><g
       id="g637"
       transform="matrix(0.774557,0,0,0.77345,-263.819,-44.9081)">
   <text
   style="font-size:12px;font-weight:normal;fill:#2b2828;font-family:Arial"
   id="text639"
   y="192"
   x="400">~</text>










  </g><g
       id="g641"
       transform="matrix(0.774557,0,0,0.77345,-262.829,-18.2238)">
   <text
   style="font-size:9px;font-weight:normal;fill:#2b2828;font-family:Arial"
   id="text643"
   y="192"
   x="400">Tab</text>










  </g><g
       id="g645"
       transform="matrix(0.774557,0,0,0.77345,-247.983,8.46086)">
   <text
   style="font-size:9px;font-weight:normal;fill:#2b2828;font-family:Arial"
   id="text647"
   y="192"
   x="400">Caps</text>










  </g><g
       id="g649"
       transform="matrix(0.774557,0,0,0.77345,-247.983,16.3673)">
   <text
   style="font-size:9px;font-weight:normal;fill:#2b2828;font-family:Arial"
   id="text651"
   y="192"
   x="400">Lock</text>










  </g><g
       id="g653"
       transform="matrix(0.774557,0,0,0.77345,62.7914,-31.0719)">
   <text
   style="font-size:12px;font-weight:normal;fill:#2b2828;font-family:Arial"
   id="text655"
   y="192"
   x="400">-</text>










  </g><g
       id="g657"
       transform="matrix(0.774557,0,0,0.77345,62.7914,-45.8965)">
   <text
   style="font-size:12px;font-weight:normal;fill:#2b2828;font-family:Arial"
   id="text659"
   y="192"
   x="400">_</text>










  </g><g
       id="g661"
       transform="matrix(0.774557,0,0,0.77345,92.4829,-31.0719)">
   <text
   style="font-size:12px;font-weight:normal;fill:#2b2828;font-family:Arial"
   id="text663"
   y="192"
   x="400">=</text>










  </g><g
       id="g665"
       transform="matrix(0.774557,0,0,0.77345,92.4829,-45.8965)">
   <text
   style="font-size:12px;font-weight:normal;fill:#2b2828;font-family:Arial"
   id="text667"
   y="192"
   x="400">+</text>










  </g><g
       id="g669"
       transform="matrix(0.774557,0,0,0.77345,123.165,-31.0719)">
   <text
   style="font-size:12px;font-weight:normal;fill:#2b2828;font-family:Arial"
   id="text671"
   y="192"
   x="400">\</text>










  </g><g
       id="g673"
       transform="matrix(0.774557,0,0,0.77345,123.165,-45.8965)">
   <text
   style="font-size:12px;font-weight:normal;fill:#2b2828;font-family:Arial"
   id="text675"
   y="194"
   x="400">|</text>










  </g><g
       id="g677"
       transform="matrix(0.774557,0,0,0.77345,82.5861,-6.36408)">
   <text
   style="font-size:12px;font-weight:normal;fill:#2b2828;font-family:Arial"
   id="text679"
   y="192"
   x="400">[</text>










  </g><g
       id="g681"
       transform="matrix(0.774557,0,0,0.77345,81.5962,-19.2122)">
   <text
   style="font-size:12px;font-weight:normal;fill:#2b2828;font-family:Arial"
   id="text683"
   y="192"
   x="400">{</text>










  </g><g
       id="g685"
       transform="matrix(0.774557,0,0,0.77345,111.288,-6.36408)">
   <text
   style="font-size:12px;font-weight:normal;fill:#2b2828;font-family:Arial"
   id="text687"
   y="192"
   x="400">]</text>










  </g><g
       id="g689"
       transform="matrix(0.774557,0,0,0.77345,111.288,-19.2122)">
   <text
   style="font-size:12px;font-weight:normal;fill:#2b2828;font-family:Arial"
   id="text691"
   y="192"
   x="400">}</text>










  </g><g
       id="g693"
       transform="matrix(0.774557,0,0,0.77345,59.8224,18.3438)">
   <text
   style="font-size:12px;font-weight:normal;fill:#2b2828;font-family:Arial"
   id="text695"
   y="192"
   x="400">;</text>










  </g><g
       id="g697"
       transform="matrix(0.774557,0,0,0.77345,59.8224,5.49565)">
   <text
   style="font-size:12px;font-weight:normal;fill:#2b2828;font-family:Arial"
   id="text699"
   y="192"
   x="400">:</text>










  </g><g
       id="g701"
       transform="matrix(0.774557,0,0,0.77345,89.5139,19.3322)">
   <text
   style="font-size:12px;font-weight:normal;fill:#2b2828;font-family:Arial"
   id="text703"
   y="192"
   x="400">'</text>










  </g><g
       id="g705"
       transform="matrix(0.774557,0,0,0.77345,88.524,6.48405)">
   <text
   style="font-size:12px;font-weight:normal;fill:#2b2828;font-family:Arial"
   id="text707"
   y="192"
   x="400">&quot;</text>










  </g><g
       id="g709"
       transform="matrix(0.774557,0,0,0.77345,70.7091,45.0281)">
   <text
   style="font-size:12px;font-weight:normal;fill:#2b2828;font-family:Arial"
   id="text711"
   y="192"
   x="400">/</text>










  </g><g
       id="g713"
       transform="matrix(0.774557,0,0,0.77345,70.7091,32.1803)">
   <text
   style="font-size:12px;font-weight:normal;fill:#2b2828;font-family:Arial"
   id="text715"
   y="192"
   x="400">?</text>










  </g><g
       id="g717"
       transform="matrix(0.774557,0,0,0.77345,42.0072,45.0281)">
   <text
   style="font-size:12px;font-weight:normal;fill:#2b2828;font-family:Arial"
   id="text719"
   y="192"
   x="400">.</text>










  </g><g
       id="g721"
       transform="matrix(0.774557,0,0,0.77345,41.0173,32.1803)">
   <text
   style="font-size:12px;font-weight:normal;fill:#2b2828;font-family:Arial"
   id="text723"
   y="192"
   x="400">&gt;</text>










  </g><g
       id="g725"
       transform="matrix(0.774557,0,0,0.77345,11.3255,45.0281)">
   <text
   style="font-size:12px;font-weight:normal;fill:#2b2828;font-family:Arial"
   id="text727"
   y="192"
   x="400">,</text>










  </g><g
       id="g729"
       transform="matrix(0.774557,0,0,0.77345,10.3359,32.1803)">
   <text
   style="font-size:12px;font-weight:normal;fill:#2b2828;font-family:Arial"
   id="text731"
   y="192"
   x="400">&lt;</text>










  </g><path
       inkscape:connector-curvature="0"
       style="fill:#97c5d5;stroke:#202326;stroke-width:0"
       id="path865"
       d="m 356,197 24,0 c 1,0 2,1 2,3 l 0,18 c 0,1 -1,3 -2,3 l -24,0 c -1,0 -2,-2 -2,-3 l 0,-18 c 0,-2 1,-3 2,-3 z" /><g
       id="g867"
       transform="matrix(0.774557,0,0,0.77345,49.697,62.8175)">
   <text
   style="font-size:9px;font-weight:normal;fill:#2b2828;font-family:Arial"
   id="text869"
   y="192"
   x="400">Alt Gr</text>










  </g><g
       id="g11615"><path
         inkscape:connector-curvature="0"
         style="fill:#2b2828;fill-opacity:1;stroke:#2b2828;stroke-width:1.00025034;stroke-linecap:butt;stroke-linejoin:miter;stroke-miterlimit:4;stroke-opacity:1;stroke-dasharray:none;marker-end:url(#TriangleOutMu)"
         id="path4208"
         d="m 82.102628,127.41927 -10.012518,0" /><path
         inkscape:connector-curvature="0"
         style="fill:#2b2828;fill-opacity:1;stroke:#2b2828;stroke-width:1.00025046;stroke-linecap:butt;stroke-linejoin:miter;stroke-miterlimit:4;stroke-opacity:1;stroke-dasharray:none"
         id="path5410"
         d="m 69.086358,125.4168 0,4.00501" /></g><g
       id="g11619"><path
         inkscape:connector-curvature="0"
         style="fill:#2b2828;fill-opacity:1;fill-rule:evenodd;stroke:#2b2828;stroke-width:1.00025034;stroke-linecap:butt;stroke-linejoin:miter;stroke-miterlimit:4;stroke-opacity:1;stroke-dasharray:none;marker-end:url(#TriangleOutMY)"
         id="path4208-0"
         d="m 69.086356,135.42929 10.012518,0" /><path
         inkscape:connector-curvature="0"
         style="fill:#2b2828;fill-opacity:1;fill-rule:evenodd;stroke:#2b2828;stroke-width:1.00025034;stroke-linecap:butt;stroke-linejoin:miter;stroke-miterlimit:4;stroke-opacity:1;stroke-dasharray:none"
         id="path5410-9"
         d="m 82.102628,133.42679 0,4.005" /></g><path
       inkscape:connector-curvature="0"
       style="fill:none;stroke:#2b2828;stroke-width:1.00125158px;stroke-linecap:butt;stroke-linejoin:miter;stroke-opacity:1;marker-end:url(#TriangleOutMF)"
       id="path6545"
       d="m 470.58824,144.44056 0,10.01251 -20.02505,0" /><path
       inkscape:connector-curvature="0"
       style="fill:none;stroke:#2b2828;stroke-width:1.00125158px;stroke-linecap:butt;stroke-linejoin:miter;stroke-opacity:1;marker-end:url(#TriangleOutM1)"
       id="path11623-1-0"
       d="m 480.60075,106.84773 -15.01879,0" /></g></g>
</svg>